<svg width="94" height="93" viewBox="0 0 94 93" fill="none" xmlns="http://www.w3.org/2000/svg">
<g clip-path="url(#clip0_45_148)">
<path d="M64 0H30C13.4315 0 0 13.4315 0 30V63C0 79.5685 13.4315 93 30 93H64C80.5685 93 94 79.5685 94 63V30C94 13.4315 80.5685 0 64 0Z" fill="#EBECEE"/>
<path d="M39.7109 21.0813C43.0477 21.0813 45.7528 23.7866 45.7529 27.1233V55.6057C45.7529 58.9425 43.0477 61.6477 39.7109 61.6477C37.3668 61.6477 35.8871 61.7238 34.9639 61.6438V61.6477H29.3154C28.3897 61.7224 26.9184 61.6477 24.6064 61.6477C21.2699 61.6475 18.5645 58.9423 18.5645 55.6057V27.1233C18.5645 23.7867 21.2699 21.0815 24.6064 21.0813C27.9432 21.0813 30.6484 23.7866 30.6484 27.1233V31.4387H33.6689V27.1233C33.669 23.7867 36.3744 21.0815 39.7109 21.0813ZM32.375 41.7961C31.4216 41.7961 30.6484 42.5693 30.6484 43.5227V51.2903C30.6484 52.2436 31.4216 53.0168 32.375 53.0168C33.3281 53.0166 34.1006 52.2435 34.1006 51.2903V43.5227C34.1006 42.5695 33.3281 41.7964 32.375 41.7961Z" fill="#656464"/>
<path d="M39.7105 41.796C42.3322 41.796 44.4576 39.4775 44.4576 36.6174C44.4576 33.7573 42.3322 31.4387 39.7105 31.4387C37.0887 31.4387 34.9634 33.7573 34.9634 36.6174C34.9634 39.4775 37.0887 41.796 39.7105 41.796Z" fill="white"/>
<path d="M40.5739 41.7959C42.719 41.7959 44.4579 39.8638 44.4579 37.4803C44.4579 35.0969 42.719 33.1648 40.5739 33.1648C38.4289 33.1648 36.6899 35.0969 36.6899 37.4803C36.6899 39.8638 38.4289 41.7959 40.5739 41.7959Z" fill="black"/>
<path d="M37.816 35.6903C38.0085 35.8308 38.3924 35.6326 38.6734 35.2475C38.9543 34.8624 39.026 34.4364 38.8335 34.2959C38.6409 34.1554 38.2571 34.3537 37.9761 34.7387C37.6951 35.1238 37.6235 35.5499 37.816 35.6903Z" fill="white"/>
<path d="M39.7105 59.0581H39.7105C38.5188 59.0581 37.5527 60.0242 37.5527 61.2159V73.2994C37.5527 74.4911 38.5188 75.4572 39.7105 75.4572C40.9022 75.4572 41.8683 74.4911 41.8683 73.2994V61.2159C41.8683 60.0242 40.9022 59.0581 39.7105 59.0581Z" fill="#656464"/>
<path d="M32.374 73.2995V73.2995C32.374 74.4912 33.3401 75.4573 34.5318 75.4573H38.8473C40.039 75.4573 41.0051 74.4912 41.0051 73.2995V73.2995C41.0051 72.1078 40.039 71.1417 38.8473 71.1417H34.5318C33.3401 71.1417 32.374 72.1078 32.374 73.2995Z" fill="#656464"/>
<path d="M53.9512 21.0813C50.6144 21.0813 47.9092 23.7865 47.9092 27.1233V55.6057C47.9092 58.9424 50.6145 61.6477 53.9512 61.6477C56.2953 61.6477 57.775 61.7238 58.6982 61.6438V61.6477H64.3467C65.2724 61.7224 66.7435 61.6477 69.0557 61.6477C72.3923 61.6476 75.0976 58.9424 75.0977 55.6057V27.1233C75.0977 23.7866 72.3923 21.0814 69.0557 21.0813C65.7189 21.0813 63.0137 23.7865 63.0137 27.1233V31.4387H59.9932V27.1233C59.9932 23.7866 57.2878 21.0814 53.9512 21.0813ZM61.2881 41.7961C62.2413 41.7964 63.0137 42.5695 63.0137 43.5227V51.2903C63.0137 52.2435 62.2413 53.0166 61.2881 53.0168C60.3347 53.0168 59.5615 52.2436 59.5615 51.2903V43.5227C59.5615 42.5693 60.3347 41.7961 61.2881 41.7961Z" fill="#656464"/>
<path d="M53.9511 41.796C51.3294 41.796 49.204 39.4775 49.204 36.6174C49.204 33.7573 51.3294 31.4387 53.9511 31.4387C56.5729 31.4387 58.6982 33.7573 58.6982 36.6174C58.6982 39.4775 56.5729 41.796 53.9511 41.796Z" fill="white"/>
<path d="M53.0882 41.7961C50.9431 41.7961 49.2042 39.864 49.2042 37.4806C49.2042 35.0972 50.9431 33.165 53.0882 33.165C55.2332 33.165 56.9722 35.0972 56.9722 37.4806C56.9722 39.864 55.2332 41.7961 53.0882 41.7961Z" fill="black"/>
<path d="M53.9511 59.0583H53.9511C55.1428 59.0583 56.1089 60.0244 56.1089 61.2161V73.2997C56.1089 74.4914 55.1428 75.4574 53.9511 75.4574C52.7594 75.4574 51.7933 74.4914 51.7933 73.2997V61.2161C51.7933 60.0244 52.7594 59.0583 53.9511 59.0583Z" fill="#656464"/>
<path d="M61.2876 73.2995V73.2995C61.2876 74.4912 60.3215 75.4573 59.1298 75.4573H54.8143C53.6226 75.4573 52.6565 74.4912 52.6565 73.2995V73.2995C52.6565 72.1078 53.6226 71.1417 54.8143 71.1417H59.1298C60.3215 71.1417 61.2876 72.1078 61.2876 73.2995Z" fill="#656464"/>
<path d="M50.8472 35.6769C51.0398 35.8174 51.4236 35.6191 51.7046 35.2341C51.9856 34.849 52.0573 34.4229 51.8647 34.2824C51.6722 34.142 51.2883 34.3402 51.0074 34.7253C50.7264 35.1104 50.6547 35.5364 50.8472 35.6769Z" fill="white"/>
<path d="M40.1416 51.3592C42.0117 48.0506 47.2191 43.4186 53.0882 51.3592" stroke="black" stroke-width="2" stroke-linecap="round"/>
</g>
<defs>
<clipPath id="clip0_45_148">
<rect width="94" height="93" fill="white"/>
</clipPath>
</defs>
</svg>
