<svg width="304" height="304" viewBox="0 0 304 304" fill="none" xmlns="http://www.w3.org/2000/svg">
<rect width="304" height="304" rx="152" fill="#D9D9D9"/>
<path d="M126.768 78.1719C138.547 78.1719 148.096 87.7208 148.096 99.5V200.047C148.095 211.826 138.547 221.376 126.768 221.376C118.491 221.376 113.268 221.651 110.009 221.368V221.371H90.1768C86.9159 221.65 81.6974 221.376 73.4404 221.376C61.6615 221.376 52.1125 211.826 52.1123 200.047V99.5C52.1123 87.7209 61.6613 78.1721 73.4404 78.1719C85.2197 78.1719 94.7695 87.7207 94.7695 99.5V114.729H105.439V99.5C105.439 87.7207 114.988 78.1719 126.768 78.1719ZM100.869 151.296C97.5037 151.296 94.7755 154.024 94.7754 157.39V184.812C94.7754 188.177 97.5036 190.905 100.869 190.905C104.235 190.905 106.963 188.177 106.963 184.812V157.39C106.963 154.024 104.235 151.296 100.869 151.296Z" fill="#656464"/>
<ellipse cx="126.779" cy="133.012" rx="16.7579" ry="18.2814" fill="white"/>
<ellipse cx="129.815" cy="136.063" rx="13.711" ry="15.2345" fill="black"/>
<ellipse cx="121.879" cy="127.283" rx="1.52345" ry="3.0469" transform="rotate(36.1166 121.879 127.283)" fill="white"/>
<path d="M177.054 78.1719C165.274 78.1719 155.726 87.7207 155.726 99.5V200.047C155.726 211.826 165.275 221.376 177.054 221.376C185.329 221.376 190.552 221.651 193.812 221.368V221.371H213.631C216.892 221.65 222.11 221.376 230.367 221.376C242.146 221.376 251.695 211.826 251.695 200.047V99.5C251.695 87.7209 242.146 78.1721 230.367 78.1719C218.588 78.172 209.039 87.7208 209.039 99.5V114.729H198.382V99.5C198.382 87.721 188.833 78.1723 177.054 78.1719ZM202.952 151.296C206.317 151.296 209.046 154.024 209.046 157.39V184.812C209.046 188.177 206.318 190.905 202.952 190.905C199.587 190.905 196.858 188.177 196.858 184.812V157.39C196.858 154.024 199.587 151.296 202.952 151.296Z" fill="#656464"/>
<ellipse cx="16.7579" cy="18.2814" rx="16.7579" ry="18.2814" transform="matrix(-1 0 0 1 193.812 114.73)" fill="white"/>
<ellipse cx="13.711" cy="15.2345" rx="13.711" ry="15.2345" transform="matrix(-1 0 0 1 187.718 120.828)" fill="black"/>
<ellipse cx="167.89" cy="127.232" rx="1.52345" ry="3.0469" transform="rotate(36.1166 167.89 127.232)" fill="white"/>
<path d="M128.31 169.584C134.911 181.264 153.294 197.615 174.013 169.584" stroke="black" stroke-width="3" stroke-linecap="round"/>
<ellipse cx="194" cy="156" rx="14" ry="6" fill="#E98D8D"/>
<ellipse cx="110" cy="156" rx="14" ry="6" fill="#E98D8D"/>
</svg>
