<svg width="94" height="93" viewBox="0 0 94 93" fill="none" xmlns="http://www.w3.org/2000/svg">
<g clip-path="url(#clip0_45_128)">
<path d="M64 0H30C13.4315 0 0 13.4315 0 30V63C0 79.5685 13.4315 93 30 93H64C80.5685 93 94 79.5685 94 63V30C94 13.4315 80.5685 0 64 0Z" fill="#EBECEE"/>
<path d="M39.566 59.0581H39.566C38.3743 59.0581 37.4082 60.0242 37.4082 61.2159V73.2994C37.4082 74.4911 38.3743 75.4572 39.566 75.4572C40.7577 75.4572 41.7238 74.4911 41.7238 73.2994V61.2159C41.7238 60.0242 40.7577 59.0581 39.566 59.0581Z" fill="#4278FF"/>
<path d="M39.5664 21.0813C42.903 21.0815 45.6073 23.7867 45.6074 27.1233V55.6057C45.6074 58.9424 42.9031 61.6476 39.5664 61.6477C37.2223 61.6477 35.7426 61.7238 34.8193 61.6438V61.6477H29.1709C28.2452 61.7224 26.7743 61.6477 24.4619 61.6477C21.1252 61.6477 18.4199 58.9425 18.4199 55.6057V27.1233C18.42 23.7866 21.1252 21.0813 24.4619 21.0813C27.7985 21.0814 30.5038 23.7867 30.5039 27.1233V31.4387H33.5244V27.1233C33.5245 23.7866 36.2297 21.0813 39.5664 21.0813ZM32.2295 41.7961C31.2762 41.7963 30.5039 42.5694 30.5039 43.5227V51.2903C30.5039 52.2436 31.2762 53.0167 32.2295 53.0168C33.1829 53.0168 33.956 52.2436 33.9561 51.2903V43.5227C33.9561 42.5693 33.1829 41.7961 32.2295 41.7961Z" fill="#656464"/>
<path d="M39.566 59.0583H39.566C38.3743 59.0583 37.4082 60.0244 37.4082 61.2161V73.2997C37.4082 74.4914 38.3743 75.4574 39.566 75.4574C40.7577 75.4574 41.7238 74.4914 41.7238 73.2997V61.2161C41.7238 60.0244 40.7577 59.0583 39.566 59.0583Z" fill="#656464"/>
<path d="M32.2295 73.2995V73.2995C32.2295 74.4912 33.1956 75.4573 34.3873 75.4573H38.7028C39.8945 75.4573 40.8606 74.4912 40.8606 73.2995V73.2995C40.8606 72.1078 39.8945 71.1417 38.7028 71.1417H34.3873C33.1956 71.1417 32.2295 72.1078 32.2295 73.2995Z" fill="#656464"/>
<path d="M53.8086 21.0813C50.4721 21.0816 47.7667 23.7867 47.7666 27.1233V55.6057C47.7666 58.9423 50.472 61.6474 53.8086 61.6477C56.1526 61.6477 57.6324 61.7238 58.5557 61.6438V61.6477H64.2041C65.1298 61.7224 66.6012 61.6477 68.9131 61.6477C72.2497 61.6476 74.9541 58.9424 74.9541 55.6057V27.1233C74.954 23.7867 72.2497 21.0814 68.9131 21.0813C65.5766 21.0816 62.8712 23.7867 62.8711 27.1233V31.4387H59.8506V27.1233C59.8505 23.7867 57.1452 21.0814 53.8086 21.0813ZM61.1445 41.7961C62.0979 41.7961 62.8711 42.5693 62.8711 43.5227V51.2903C62.8711 52.2436 62.0979 53.0168 61.1445 53.0168C60.1913 53.0167 59.419 52.2435 59.4189 51.2903V43.5227C59.4189 42.5694 60.1913 41.7963 61.1445 41.7961Z" fill="#656464"/>
<path d="M53.808 59.0581H53.8081C54.9998 59.0581 55.9658 60.0242 55.9658 61.2159V73.2994C55.9658 74.4911 54.9998 75.4572 53.808 75.4572C52.6163 75.4572 51.6503 74.4911 51.6503 73.2994V61.2159C51.6503 60.0242 52.6163 59.0581 53.808 59.0581Z" fill="#656464"/>
<path d="M61.1445 73.2995V73.2995C61.1445 74.4912 60.1785 75.4573 58.9868 75.4573H54.6712C53.4795 75.4573 52.5134 74.4912 52.5134 73.2995V73.2995C52.5134 72.1078 53.4795 71.1417 54.6712 71.1417H58.9868C60.1785 71.1417 61.1445 72.1078 61.1445 73.2995Z" fill="#656464"/>
<path fill-rule="evenodd" clip-rule="evenodd" d="M34.7379 33.698C34.9203 33.1769 35.4911 32.9016 36.0123 33.0838L43.7177 35.7813C44.2557 35.9696 44.5857 36.5118 44.506 37.0762C44.4262 37.6408 43.9587 38.0693 43.3901 38.1125C42.2095 38.2022 40.7549 38.3515 39.4459 38.5642C38.5916 38.7031 37.8296 38.8649 37.2554 39.0437C36.9676 39.1334 36.7537 39.2191 36.6099 39.2947C36.5699 39.3158 36.5406 39.3333 36.5199 39.3466C36.4934 39.3637 36.4715 39.3866 36.4527 39.4119C36.1304 39.8028 35.5582 39.8942 35.1275 39.6072C34.6682 39.3009 34.544 38.6799 34.8502 38.2205C35.0744 37.8842 35.409 37.6664 35.6793 37.5242C35.9703 37.3712 36.3096 37.243 36.6607 37.1336C37.3647 36.9143 38.2318 36.7358 39.1246 36.5906C39.2766 36.5659 39.2967 36.3523 39.1513 36.3015L35.3511 34.9724C34.8304 34.7899 34.5558 34.219 34.7379 33.698Z" fill="black"/>
<path fill-rule="evenodd" clip-rule="evenodd" d="M57.4479 33.0838C57.9691 32.9016 58.5399 33.1769 58.7223 33.698C58.9044 34.219 58.6299 34.7899 58.109 34.9725L54.3088 36.3015C54.1635 36.3524 54.1836 36.5659 54.3356 36.5906C55.2284 36.7358 56.0955 36.9143 56.7995 37.1336C57.1506 37.243 57.4898 37.3712 57.7809 37.5242C58.0512 37.6664 58.3857 37.8841 58.61 38.2205C58.9162 38.68 58.792 39.3009 58.3327 39.6072C57.9019 39.8943 57.3298 39.8029 57.0075 39.4119C56.9887 39.3866 56.9668 39.3637 56.9403 39.3467C56.9196 39.3333 56.8903 39.3158 56.8502 39.2947C56.7065 39.2191 56.4926 39.1334 56.2047 39.0437C55.6306 38.8649 54.8687 38.7031 54.0143 38.5643C52.7052 38.3515 51.2507 38.2023 50.0701 38.1125C49.5014 38.0693 49.034 37.6409 48.9542 37.0762C48.8745 36.5118 49.2045 35.9696 49.7425 35.7813L57.4479 33.0838Z" fill="black"/>
<path d="M51.1865 41.3488C51.4334 40.855 52.0344 40.6548 52.5283 40.9015C53.022 41.1486 53.2224 41.7494 52.9755 42.2433C52.7122 42.7699 52.2904 43.1928 51.7949 43.5334C51.8368 45.5909 51.7062 48.1685 51.1015 50.3205C50.7758 51.4796 50.2919 52.5955 49.5576 53.4377C48.7971 54.3095 47.7695 54.88 46.4706 54.88L46.2304 54.8732C45.0445 54.8073 44.0967 54.2551 43.3837 53.4377C42.6494 52.5955 42.1655 51.4797 41.8398 50.3205C41.2358 48.1709 41.1029 45.5966 41.1445 43.5402C40.6805 43.2061 40.2796 42.7953 39.9921 42.2921C39.7184 41.8127 39.885 41.2019 40.3642 40.9279C40.8436 40.6539 41.4544 40.8206 41.7285 41.3C41.9874 41.7532 42.5589 42.1798 43.4755 42.4855C44.3739 42.785 45.4831 42.9256 46.6103 42.9005C47.7371 42.8755 48.8255 42.6866 49.6806 42.3742C50.576 42.0469 51.0346 41.6524 51.1865 41.3488ZM49.8027 44.4347C48.8314 44.7187 47.7389 44.8755 46.6542 44.8996C45.4623 44.926 44.2327 44.7929 43.1386 44.4718C43.1528 46.2281 43.3148 48.1751 43.7656 49.7794C44.0511 50.7956 44.4304 51.5944 44.8915 52.1232C45.3267 52.6222 45.8278 52.8799 46.4706 52.88C47.1135 52.88 47.6145 52.6221 48.0497 52.1232C48.5109 51.5944 48.8902 50.7955 49.1757 49.7794C49.6297 48.1638 49.7905 46.2006 49.8027 44.4347Z" fill="black"/>
<path fill-rule="evenodd" clip-rule="evenodd" d="M51.795 43.5334L51.5117 43.1213L51.2896 43.274L51.2951 43.5436L51.795 43.5334ZM46.4707 54.88L46.4565 55.3798L46.4636 55.38H46.4708L46.4707 54.88ZM46.2305 54.8732L46.2027 55.3726L46.2163 55.373L46.2305 54.8732ZM41.1446 43.5402L41.6445 43.5503L41.6498 43.2878L41.4367 43.1344L41.1446 43.5402ZM49.8028 44.4347L50.3028 44.4382L50.3074 43.7662L49.6625 43.9548L49.8028 44.4347ZM43.1387 44.4718L43.2795 43.9921L42.6333 43.8024L42.6387 44.4759L43.1387 44.4718ZM51.1866 41.3488L51.6337 41.5724C51.7572 41.3257 52.0578 41.2254 52.3049 41.3488L52.5284 40.9015L52.7521 40.4544C52.0114 40.0844 51.1099 40.3843 50.7394 41.1251L51.1866 41.3488ZM52.5284 40.9015L52.3049 41.3488C52.5519 41.4723 52.6518 41.7729 52.5284 42.0198L52.9756 42.2433L53.4228 42.4669C53.7931 41.726 53.4927 40.8249 52.7521 40.4544L52.5284 40.9015ZM52.9756 42.2433L52.5284 42.0198C52.3132 42.4502 51.9594 42.8136 51.5117 43.1213L51.795 43.5334L52.0782 43.9454C52.6216 43.5719 53.1114 43.0898 53.4228 42.4669L52.9756 42.2433ZM51.795 43.5334L51.2951 43.5436C51.3366 45.5817 51.2054 48.1025 50.6202 50.1852L51.1016 50.3205L51.583 50.4557C52.2071 48.2345 52.3372 45.6001 52.2949 43.5232L51.795 43.5334ZM51.1016 50.3205L50.6202 50.1852C50.3046 51.3085 49.8468 52.3452 49.1808 53.109L49.5577 53.4377L49.9345 53.7663C50.7371 52.8459 51.2471 51.6507 51.583 50.4557L51.1016 50.3205ZM49.5577 53.4377L49.1808 53.109C48.5013 53.888 47.6051 54.38 46.4707 54.38V54.88L46.4708 55.38C47.9341 55.38 49.093 54.731 49.9345 53.7663L49.5577 53.4377ZM46.4707 54.88L46.485 54.3802L46.2447 54.3734L46.2305 54.8732L46.2163 55.373L46.4565 55.3798L46.4707 54.88ZM46.2305 54.8732L46.2583 54.374C45.2265 54.3166 44.3987 53.8406 43.7606 53.109L43.3838 53.4377L43.007 53.7663C43.7948 54.6696 44.8626 55.2981 46.2027 55.3726L46.2305 54.8732ZM43.3838 53.4377L43.7606 53.109C43.0945 52.3452 42.6369 51.3086 42.3212 50.1852L41.8399 50.3205L41.3585 50.4557C41.6943 51.6508 42.2044 52.8458 43.007 53.7663L43.3838 53.4377ZM41.8399 50.3205L42.3212 50.1852C41.7366 48.1047 41.6033 45.587 41.6445 43.5503L41.1446 43.5402L40.6447 43.5301C40.6027 45.6063 40.7351 48.2371 41.3585 50.4557L41.8399 50.3205ZM41.1446 43.5402L41.4367 43.1344C41.0195 42.834 40.672 42.474 40.4263 42.0441L39.9922 42.2921L39.558 42.5401C39.8873 43.1164 40.3417 43.5782 40.8524 43.946L41.1446 43.5402ZM39.9922 42.2921L40.4263 42.0441C40.2894 41.8044 40.3729 41.499 40.6125 41.3619L40.3643 40.9279L40.1162 40.4938C39.3973 40.9049 39.1474 41.821 39.558 42.5401L39.9922 42.2921ZM40.3643 40.9279L40.6125 41.3619C40.852 41.225 41.1574 41.3083 41.2945 41.5481L41.7286 41.3L42.1627 41.0519C41.7517 40.333 40.8355 40.0827 40.1162 40.4938L40.3643 40.9279ZM41.7286 41.3L41.2945 41.5481C41.6396 42.152 42.3432 42.6349 43.3174 42.9598L43.4756 42.4855L43.6338 42.0112C42.7747 41.7247 42.3355 41.3544 42.1627 41.0519L41.7286 41.3ZM43.4756 42.4855L43.3174 42.9598C44.2822 43.2814 45.4508 43.4264 46.6215 43.4004L46.6104 42.9005L46.5993 42.4007C45.5155 42.4247 44.4659 42.2885 43.6338 42.0112L43.4756 42.4855ZM46.6104 42.9005L46.6215 43.4004C47.7917 43.3744 48.9361 43.1786 49.8523 42.8438L49.6807 42.3742L49.5091 41.9045C48.7151 42.1947 47.6826 42.3766 46.5993 42.4007L46.6104 42.9005ZM49.6807 42.3742L49.8523 42.8438C50.7893 42.5013 51.3961 42.0475 51.6337 41.5724L51.1866 41.3488L50.7394 41.1251C50.6733 41.2572 50.3628 41.5924 49.5091 41.9045L49.6807 42.3742ZM49.8028 44.4347L49.6625 43.9548C48.7381 44.2251 47.6895 44.3764 46.6432 44.3997L46.6543 44.8996L46.6654 45.3994C47.7884 45.3745 48.925 45.2123 49.9431 44.9146L49.8028 44.4347ZM46.6543 44.8996L46.6432 44.3997C45.4927 44.4252 44.3156 44.2961 43.2795 43.9921L43.1387 44.4718L42.9979 44.9516C44.1499 45.2897 45.432 45.4268 46.6654 45.3994L46.6543 44.8996ZM43.1387 44.4718L42.6387 44.4759C42.6531 46.2518 42.8163 48.2491 43.2843 49.9147L43.7657 49.7794L44.247 49.6442C43.8134 48.1011 43.6527 46.2043 43.6387 44.4678L43.1387 44.4718ZM43.7657 49.7794L43.2843 49.9147C43.5799 50.9666 43.9853 51.8447 44.5148 52.4518L44.8916 52.1232L45.2685 51.7946C44.8756 51.3441 44.5225 50.6245 44.247 49.6442L43.7657 49.7794ZM44.8916 52.1232L44.5148 52.4518C45.0316 53.0444 45.6643 53.3799 46.4707 53.38V52.88L46.4708 52.38C45.9915 52.38 45.622 52.2 45.2685 51.7946L44.8916 52.1232ZM46.4707 52.88V53.38C47.2772 53.38 47.9099 53.0442 48.4266 52.4519L48.0498 52.1232L47.673 51.7945C47.3194 52.2 46.95 52.38 46.4708 52.38L46.4707 52.88ZM48.0498 52.1232L48.4266 52.4519C48.9561 51.8448 49.3616 50.9666 49.6572 49.9147L49.1758 49.7794L48.6945 49.6442C48.419 50.6245 48.0659 51.344 47.673 51.7945L48.0498 52.1232ZM49.1758 49.7794L49.6572 49.9147C50.1285 48.2374 50.2905 46.2237 50.3028 44.4382L49.8028 44.4347L49.3028 44.4313C49.2908 46.1775 49.1311 48.0902 48.6945 49.6442L49.1758 49.7794Z" fill="black"/>
</g>
<defs>
<clipPath id="clip0_45_128">
<rect width="94" height="93" fill="white"/>
</clipPath>
</defs>
</svg>
