<svg width="71" height="71" viewBox="0 0 71 71" fill="none" xmlns="http://www.w3.org/2000/svg">
<circle cx="35.5" cy="35.5" r="35.5" fill="white"/>
<path d="M57 38.5C58.3807 38.5 59.5 37.3807 59.5 36C59.5 34.6193 58.3807 33.5 57 33.5V36V38.5ZM12.2322 34.2322C11.2559 35.2085 11.2559 36.7915 12.2322 37.7678L28.1421 53.6777C29.1184 54.654 30.7014 54.654 31.6777 53.6777C32.654 52.7014 32.654 51.1184 31.6777 50.1421L17.5355 36L31.6777 21.8579C32.654 20.8816 32.654 19.2986 31.6777 18.3223C30.7014 17.346 29.1184 17.346 28.1421 18.3223L12.2322 34.2322ZM57 36V33.5L14 33.5V36V38.5L57 38.5V36Z" fill="#656464"/>
</svg>
