<svg width="71" height="71" viewBox="0 0 71 71" fill="none" xmlns="http://www.w3.org/2000/svg">
<circle cx="35.5" cy="35.5" r="35.5" transform="matrix(-1 0 0 1 71 0)" fill="white"/>
<path d="M14 38.5C12.6193 38.5 11.5 37.3807 11.5 36C11.5 34.6193 12.6193 33.5 14 33.5V36V38.5ZM58.7678 34.2322C59.7441 35.2085 59.7441 36.7915 58.7678 37.7678L42.8579 53.6777C41.8816 54.654 40.2986 54.654 39.3223 53.6777C38.346 52.7014 38.346 51.1184 39.3223 50.1421L53.4645 36L39.3223 21.8579C38.346 20.8816 38.346 19.2986 39.3223 18.3223C40.2986 17.346 41.8816 17.346 42.8579 18.3223L58.7678 34.2322ZM14 36V33.5L57 33.5V36V38.5L14 38.5V36Z" fill="#656464"/>
</svg>
