<svg width="50" height="49" viewBox="0 0 50 49" fill="none" xmlns="http://www.w3.org/2000/svg">
<rect x="16.7939" y="33.5879" width="3.81679" height="14.5038" rx="1.9084" fill="#4278FF"/>
<path d="M18.7021 0C21.6533 0 24.0459 2.39261 24.0459 5.34375V30.5342C24.0459 33.4853 21.6533 35.8779 18.7021 35.8779C16.6289 35.8779 15.3205 35.9458 14.5039 35.875V35.8779H9.50977C8.69115 35.9442 7.38995 35.8779 5.34375 35.8779C2.39261 35.8779 0 33.4853 0 30.5342V5.34375C0 2.39261 2.39261 0 5.34375 0C8.29478 0.000129024 10.6875 2.39269 10.6875 5.34375V9.16016H13.3584V5.34375C13.3584 2.39266 15.7511 7.64555e-05 18.7021 0ZM12.2139 18.3203C11.3707 18.3203 10.6875 19.0045 10.6875 19.8477V26.7178C10.6876 27.5609 11.3708 28.2441 12.2139 28.2441C13.0569 28.2441 13.7401 27.5608 13.7402 26.7178V19.8477C13.7402 19.0045 13.057 18.3204 12.2139 18.3203Z" fill="#4278FF"/>
<ellipse cx="18.7024" cy="13.7403" rx="4.19847" ry="4.58015" fill="white"/>
<ellipse cx="19.4659" cy="14.5043" rx="3.43511" ry="3.81679" fill="black"/>
<ellipse cx="17.4765" cy="12.3045" rx="0.381679" ry="0.763359" transform="rotate(36.1166 17.4765 12.3045)" fill="white"/>
<rect x="16.7939" y="33.5879" width="3.81679" height="14.5038" rx="1.9084" fill="#4278FF"/>
<rect x="12.2139" y="48.0918" width="3.81679" height="7.63359" rx="1.9084" transform="rotate(-90 12.2139 48.0918)" fill="#4278FF"/>
<path d="M31.2979 0C28.3467 0 25.9541 2.39261 25.9541 5.34375V30.5342C25.9541 33.4853 28.3467 35.8779 31.2979 35.8779C33.3711 35.8779 34.6795 35.9458 35.4961 35.875V35.8779H40.4902C41.3089 35.9442 42.61 35.8779 44.6562 35.8779C47.6074 35.8779 50 33.4853 50 30.5342V5.34375C50 2.39261 47.6074 0 44.6562 0C41.7052 0.000129024 39.3125 2.39269 39.3125 5.34375V9.16016H36.6416V5.34375C36.6416 2.39266 34.2489 7.64555e-05 31.2979 0ZM37.7861 18.3203C38.6293 18.3203 39.3125 19.0045 39.3125 19.8477V26.7178C39.3124 27.5609 38.6292 28.2441 37.7861 28.2441C36.9431 28.2441 36.2599 27.5608 36.2598 26.7178V19.8477C36.2598 19.0045 36.943 18.3204 37.7861 18.3203Z" fill="#4278FF"/>
<ellipse cx="4.19847" cy="4.58015" rx="4.19847" ry="4.58015" transform="matrix(-1 0 0 1 35.4961 9.16016)" fill="white"/>
<ellipse cx="3.43511" cy="3.81679" rx="3.43511" ry="3.81679" transform="matrix(-1 0 0 1 33.9692 10.6875)" fill="black"/>
<rect width="3.81679" height="14.5038" rx="1.9084" transform="matrix(-1 0 0 1 33.2061 33.5879)" fill="#4278FF"/>
<rect width="3.81679" height="7.63359" rx="1.9084" transform="matrix(0 -1 -1 0 37.7861 48.0918)" fill="#4278FF"/>
<ellipse cx="29.0024" cy="12.2928" rx="0.381679" ry="0.763359" transform="rotate(36.1166 29.0024 12.2928)" fill="white"/>
<path d="M19.084 22.9004C20.7379 25.8266 25.3435 29.9233 30.5344 22.9004" stroke="black" stroke-width="2" stroke-linecap="round"/>
</svg>
