<svg width="210" height="48" viewBox="0 0 210 48" fill="none" xmlns="http://www.w3.org/2000/svg">
<path d="M0 8C0 3.58172 3.58172 0 8 0H202C206.418 0 210 3.58172 210 8V40C210 44.4183 206.418 48 202 48H8C3.58172 48 0 44.4183 0 40V8Z" fill="white"/>
<path d="M8 0.5H202C206.142 0.5 209.5 3.85786 209.5 8V40C209.5 44.1421 206.142 47.5 202 47.5H8C3.85786 47.5 0.5 44.1421 0.5 40V8C0.500001 3.85786 3.85787 0.5 8 0.5Z" stroke="black" stroke-opacity="0.15"/>
<g clip-path="url(#clip0_464_492)">
<path fill-rule="evenodd" clip-rule="evenodd" d="M58.3484 24.5649L52.4166 16H47.5V32H52.6516V23.4381L58.5834 32H63.5V16H58.3484V24.5649Z" fill="#03A94D"/>
<path d="M74.4717 17.9639V26.2148C75.9409 26.1982 77.2939 26.0903 78.8213 25.7666L79.0869 27.3271C77.1777 27.7422 75.5342 27.8086 73.6416 27.8086H72.6289V17.9639H74.4717ZM84.9473 16.4697V31.4775H83.1875V16.4697H84.9473ZM81.7266 16.7852V30.7637H79.9834V22.8115H76.8457V21.3174H79.9834V16.7852H81.7266ZM98.8748 16.4697V31.4941H97.0154V16.4697H98.8748ZM90.7898 17.5654C93.0477 17.5654 94.6912 19.624 94.7078 22.8613C94.6912 26.1318 93.0477 28.1738 90.7898 28.1738C88.5154 28.1738 86.8719 26.1318 86.8719 22.8613C86.8719 19.624 88.5154 17.5654 90.7898 17.5654ZM90.7898 19.2256C89.5115 19.2256 88.6482 20.5703 88.6482 22.8613C88.6482 25.1689 89.5115 26.5137 90.7898 26.5137C92.0516 26.5137 92.9148 25.1689 92.9148 22.8613C92.9148 20.5703 92.0516 19.2256 90.7898 19.2256ZM113.367 16.4697V31.4941H111.541V23.3594H108.486V27.8584H101.347V17.6318H103.207V21.3672H106.676V17.6318H108.486V21.8486H111.541V16.4697H113.367ZM103.207 26.3809H106.676V22.8115H103.207V26.3809ZM132.622 28.207V29.7344H118.909V28.207H124.82V25.7666H120.536V20.8525H129.169V18.9932H120.503V17.499H130.995V22.3135H122.379V24.2559H131.344V25.7666H126.646V28.207H132.622ZM145.238 17.9307V19.624C145.238 21.6328 145.238 23.708 144.69 26.8623L142.814 26.6963C143.396 23.7412 143.396 21.5664 143.396 19.624V19.4248H134.746V17.9307H145.238ZM146.981 27.9082V29.4189H133.302V27.9082H146.981ZM160.195 16.4863V27.3271H158.336V16.4863H160.195ZM160.61 29.6846V31.1787H150.267V26.2314H152.127V29.6846H160.61ZM152.011 17.4658C154.285 17.4658 156.045 19.043 156.045 21.2178C156.045 23.4424 154.285 24.9863 152.011 24.9863C149.72 24.9863 147.96 23.4424 147.96 21.2178C147.96 19.043 149.72 17.4658 152.011 17.4658ZM152.011 19.0762C150.732 19.0762 149.753 19.9229 149.769 21.2178C149.753 22.5459 150.732 23.376 152.011 23.376C153.256 23.376 154.235 22.5459 154.235 21.2178C154.235 19.9229 153.256 19.0762 152.011 19.0762Z" fill="black"/>
</g>
<defs>
<clipPath id="clip0_464_492">
<rect width="115" height="22" fill="white" transform="translate(47.5 13)"/>
</clipPath>
</defs>
</svg>
