<svg width="1440" height="873" viewBox="0 0 1440 873" fill="none" xmlns="http://www.w3.org/2000/svg">
<path d="M457.614 645.885C94.7237 797.229 -30.1651 752.612 -47.2483 711.386L-53.5703 4.32812L1536.32 -69.6138L1540.77 427.427C1421.54 552.498 1387.45 558.004 1327.48 584.124C1262.12 612.597 1059.72 549.611 946.898 531.547C729.967 496.813 548.121 608.139 457.614 645.885Z" fill="#E8EFFF"/>
<path d="M458.604 611.719C128.839 746.264 16.1324 695.809 1 653.764V-54H1441V443.537C1390.17 530.193 1221 672.613 908 531.023C720.08 446.015 543.5 577.081 458.604 611.719Z" fill="url(#paint0_linear_533_501)"/>
<path d="M1147.5 235.999C1155.67 234.832 1181.6 233.199 1220 235.999" stroke="black"/>
<path d="M1554.92 404.576C1487.17 317.825 1253.33 172.514 1032.07 262.498C810.801 352.482 600.105 44.045 500.898 -118.574" stroke="#90A7F8"/>
<path d="M1181.85 86C1202.98 86 1220.1 103.122 1220.1 124.244V304.538C1220.1 325.66 1202.98 342.782 1181.85 342.782C1167.02 342.782 1157.65 343.278 1151.81 342.771V342.782H1116.18C1110.32 343.272 1100.98 342.782 1086.24 342.782C1065.12 342.782 1048 325.66 1048 304.538V124.244C1048 103.123 1065.12 86 1086.24 86C1107.37 86 1124.49 103.122 1124.49 124.244V151.562H1143.61V124.244C1143.61 103.123 1160.73 86.0001 1181.85 86ZM1135.42 217.123C1129.38 217.123 1124.49 222.015 1124.49 228.05V277.221C1124.49 283.255 1129.38 288.148 1135.42 288.148C1141.45 288.148 1146.34 283.255 1146.34 277.221V228.05C1146.34 222.015 1141.45 217.123 1135.42 217.123Z" fill="#3E72F4"/>
<path d="M1272 86C1250.88 86 1233.76 103.122 1233.76 124.244V304.538C1233.76 325.66 1250.88 342.782 1272 342.782C1286.84 342.782 1296.21 343.278 1302.05 342.771V342.782H1337.68C1343.53 343.272 1352.87 342.782 1367.61 342.782C1388.73 342.782 1405.86 325.66 1405.86 304.538V124.244C1405.86 103.123 1388.73 86 1367.61 86C1346.49 86 1329.37 103.122 1329.37 124.244V151.562H1310.25V124.244C1310.25 103.123 1293.12 86.0001 1272 86ZM1318.44 217.123C1324.48 217.123 1329.37 222.015 1329.37 228.05V277.221C1329.37 283.255 1324.48 288.148 1318.44 288.148C1312.41 288.148 1307.51 283.255 1307.51 277.221V228.05C1307.51 222.015 1312.41 217.123 1318.44 217.123Z" fill="#3E72F4"/>
<path d="M803.854 -23C824.976 -23 842.099 -5.87752 842.099 15.2441V195.538C842.099 216.66 824.976 233.782 803.854 233.782C789.016 233.782 779.65 234.278 773.806 233.771V233.782H738.177C732.325 234.272 722.985 233.782 708.244 233.782C687.122 233.782 670 216.66 670 195.538V15.2441C670 -5.8775 687.122 -23 708.244 -23C729.366 -23 746.488 -5.87752 746.488 15.2441V42.5615H765.61V15.2441C765.61 -5.87744 782.733 -22.9999 803.854 -23ZM757.415 108.123C751.38 108.123 746.488 113.015 746.488 119.05V168.221C746.488 174.255 751.38 179.148 757.415 179.148C763.45 179.148 768.342 174.255 768.342 168.221V119.05C768.342 113.015 763.45 108.123 757.415 108.123Z" fill="#3E72F4"/>
<path d="M894.002 -23C872.88 -23 855.758 -5.87752 855.758 15.2441V195.538C855.758 216.66 872.88 233.782 894.002 233.782C908.841 233.782 918.206 234.278 924.051 233.771V233.782H959.68C965.532 234.272 974.872 233.782 989.612 233.782C1010.73 233.782 1027.86 216.66 1027.86 195.538V15.2441C1027.86 -5.8775 1010.73 -23 989.612 -23C968.491 -23 951.368 -5.87752 951.368 15.2441V42.5615H932.246V15.2441C932.246 -5.87744 915.124 -22.9999 894.002 -23ZM940.441 108.123C946.476 108.123 951.368 113.015 951.368 119.05V168.221C951.368 174.255 946.476 179.148 940.441 179.148C934.407 179.148 929.515 174.255 929.515 168.221V119.05C929.515 113.015 934.407 108.123 940.441 108.123Z" fill="#3E72F4"/>
<path d="M-38.5059 1.98047C60.0383 109.925 365.934 272.473 604.821 116.273C843.708 -39.9274 1158.78 348.438 1311 555" stroke="#90A7F8"/>
<path d="M215.542 702.197C161.624 687.437 17.2878 541.986 -14.5377 374.347C-46.3632 206.708 -211.193 218.352 -303.902 208.119" stroke="#E8EFFF" stroke-opacity="0.5"/>
<path d="M-245 468.133C-201.528 507.504 -108.353 726.036 23.9957 644.495C156.344 562.953 351.989 558.642 433.032 622.045" stroke="#E8EFFF" stroke-opacity="0.5"/>
<path d="M96.9062 263.25C96.9062 267.844 99.2969 272.438 104.969 274.594L101.781 279.141C98.1484 277.758 95.6406 275.227 94.0938 272.062C92.5469 275.766 89.875 278.859 85.8906 280.5L82.6562 275.906C88.6562 273.281 91.0938 268.031 91.0938 263.25V258.234H96.9062V263.25ZM119.922 255.703V281.766H114.25V270.938H110.688V280.453H105.109V256.453H110.688V266.109H114.25V255.703H119.922ZM105.344 282.375C114.344 282.375 120.109 285.375 120.156 290.344C120.109 295.312 114.344 298.312 105.344 298.312C96.2969 298.312 90.5781 295.312 90.5781 290.344C90.5781 285.375 96.2969 282.375 105.344 282.375ZM105.344 286.828C99.7656 286.828 96.5312 288.047 96.5781 290.344C96.5312 292.641 99.7656 293.812 105.344 293.812C110.875 293.812 114.109 292.641 114.109 290.344C114.109 288.047 110.875 286.828 105.344 286.828ZM158.594 255.656V265.641H164.359V270.609H158.594V280.453H152.594V255.656H158.594ZM146.594 258.047C146.594 269.438 139.422 277.125 126.625 280.359L124.141 275.812C133.867 273.375 139.211 268.547 140.125 262.781H126.391V258.047H146.594ZM158.594 282.141V298.312H152.594V286.922H129.859V282.141H158.594ZM185.688 256.266C195.484 256.266 201.156 258.844 201.203 263.531C201.156 268.266 195.484 270.844 185.688 270.844C175.844 270.844 170.125 268.266 170.125 263.531C170.125 258.844 175.844 256.266 185.688 256.266ZM185.688 260.625C179.406 260.625 176.359 261.656 176.406 263.531C176.359 265.641 179.406 266.438 185.688 266.438C192.016 266.438 195.016 265.641 195.016 263.531C195.016 261.656 192.016 260.625 185.688 260.625ZM205.141 272.859V277.594H166.234V272.859H205.141ZM200.406 280.078V290.953H176.641V293.531H201.531V298.031H170.781V286.781H194.5V284.438H170.734V280.078H200.406ZM254.453 255.656V298.312H248.5V276.281H241.938C240.766 281.906 238.586 287.156 234.625 292.031L229.938 288.703C235.727 281.578 237.273 274.266 237.625 264.891H232.844V260.016H243.25C243.25 264 243.133 267.797 242.734 271.453H248.5V255.656H254.453ZM231.531 260.016C231.484 271.734 230.266 280.875 222.625 289.266L217.938 285.938C223.75 279.656 225.438 273.398 225.812 264.891H219.812V260.016H231.531ZM297.062 255.656V298.312H291.297V276.984H287.312V296.25H281.688V256.359H287.312V272.156H291.297V255.656H297.062ZM268 260.391V282.656C271.422 282.586 275.172 282.281 279.297 281.484L279.906 286.641C274.188 287.625 269.312 287.906 264.906 287.906H262V260.391H268ZM336.906 259.359V263.391C336.906 268.734 336.906 274.734 335.172 283.781L329.172 283.172C330.789 275.109 330.859 269.109 330.906 264.094H305.781V259.359H336.906ZM340.656 288.234V293.109H301.75V288.234H315.672V273.562H321.625V288.234H340.656ZM352.234 290.531L348.203 303.891H343.234L345.578 290.531H352.234ZM374.594 258.703V264.844H383.547V258.703H389.5V280.312H368.688V258.703H374.594ZM374.594 275.625H383.547V269.391H374.594V275.625ZM402.25 255.703V287.016H396.25V255.703H402.25ZM403.234 292.781V297.562H373.562V283.875H379.562V292.781H403.234ZM446.922 277.266V282H407.922V277.266H446.922ZM442.75 270.328V274.875H412.797V256.688H442.375V261.188H418.797V263.484H441.391V267.891H418.797V270.328H442.75ZM442.281 284.484V297.844H412.516V284.484H442.281ZM418.422 289.172V293.062H436.422V289.172H418.422ZM468.953 256.266C478.75 256.266 484.422 258.844 484.469 263.531C484.422 268.266 478.75 270.844 468.953 270.844C459.109 270.844 453.391 268.266 453.391 263.531C453.391 258.844 459.109 256.266 468.953 256.266ZM468.953 260.625C462.672 260.625 459.625 261.656 459.672 263.531C459.625 265.641 462.672 266.438 468.953 266.438C475.281 266.438 478.281 265.641 478.281 263.531C478.281 261.656 475.281 260.625 468.953 260.625ZM488.406 272.859V277.594H449.5V272.859H488.406ZM483.672 280.078V290.953H459.906V293.531H484.797V298.031H454.047V286.781H477.766V284.438H454V280.078H483.672ZM515.359 268.547C515.359 274.969 517.656 281.484 523.797 284.719L520.469 289.125C516.625 287.156 514.07 283.711 512.594 279.516C511.094 284.086 508.539 287.906 504.672 290.109L501.297 285.609C507.344 282.141 509.688 275.156 509.734 268.547V267.75H502.656V262.875H509.734V257.109H515.312V262.875H522.344V267.75H515.359V268.547ZM539.266 255.656V298.312H533.547V276.938H529.938V296.344H524.266V256.266H529.938V272.062H533.547V255.656H539.266ZM582.531 279.516V284.391H565.844V298.359H559.938V284.391H543.484V279.516H582.531ZM562.891 257.062C572.031 257.062 578.453 260.859 578.453 266.766C578.453 272.578 572.031 276.281 562.891 276.281C553.75 276.281 547.375 272.578 547.422 266.766C547.375 260.859 553.75 257.062 562.891 257.062ZM562.891 261.844C557.172 261.844 553.516 263.625 553.562 266.766C553.516 269.812 557.172 271.547 562.891 271.547C568.656 271.547 572.266 269.812 572.266 266.766C572.266 263.625 568.656 261.844 562.891 261.844ZM618.672 255.656V271.5H624.953V276.375H618.672V298.406H612.672V255.656H618.672ZM606.719 259.594V264.422H592.656V283.125C598.844 283.055 603.953 282.773 609.625 281.766L610.281 286.781C603.672 287.906 597.859 288.094 590.312 288.047H586.703V259.594H606.719ZM632.031 294.422C629.828 294.422 628.047 292.641 628.094 290.484C628.047 288.328 629.828 286.594 632.031 286.594C634.094 286.594 635.922 288.328 635.922 290.484C635.922 292.641 634.094 294.422 632.031 294.422ZM115.75 313.453V323.016H122.312V324.938H115.75V334.641H113.547V313.453H115.75ZM104.547 316.031V332.062H86.0312V316.031H104.547ZM88.1875 317.953V330.188H102.438V317.953H88.1875ZM115.75 336.75V345.984H92.5469V351.938H117.484V353.859H90.3906V344.156H113.547V338.672H90.25V336.75H115.75ZM163.047 347.062V349.031H125.453V347.062H142.984V338.344H130.375V326.438H155.828V318.703H130.281V316.734H158.031V328.359H132.578V336.422H159.016V338.344H145.234V347.062H163.047ZM190.703 315.516C196.656 315.516 200.781 318.656 200.828 323.484C200.781 327.914 197.242 330.938 191.969 331.359V336C196.211 335.812 200.547 335.461 204.531 334.828L204.672 336.609C195.812 338.203 185.688 338.344 178.422 338.344L178.094 336.328C181.492 336.328 185.523 336.305 189.719 336.141V331.359C184.258 331.055 180.578 328.008 180.625 323.484C180.578 318.656 184.703 315.516 190.703 315.516ZM190.703 317.344C186.016 317.344 182.734 319.969 182.734 323.484C182.734 327 186.016 329.578 190.703 329.578C195.391 329.578 198.672 327 198.672 323.484C198.672 319.969 195.391 317.344 190.703 317.344ZM209.594 313.5V328.031H216.297V330H209.594V344.953H207.391V313.5H209.594ZM211.141 351.422V353.438H184.469V342.234H186.672V351.422H211.141ZM232.75 320.484C232.703 326.578 237.766 331.781 243.484 333.797L242.125 335.578C237.531 333.727 233.43 330.094 231.719 325.312C230.102 330.703 225.883 334.781 220.984 336.797L219.766 334.875C225.578 332.719 230.594 327.281 230.594 320.531V315.891H232.75V320.484ZM253.188 313.453V337.922H250.984V324.938H240.906V323.016H250.984V313.453H253.188ZM239.875 339.188C248.219 339.188 253.375 341.953 253.375 346.828C253.375 351.609 248.219 354.328 239.875 354.328C231.438 354.328 226.328 351.609 226.375 346.828C226.328 341.953 231.438 339.188 239.875 339.188ZM239.875 341.062C233.031 341.062 228.531 343.312 228.531 346.828C228.531 350.25 233.031 352.453 239.875 352.453C246.672 352.453 251.172 350.25 251.172 346.828C251.172 343.312 246.672 341.062 239.875 341.062ZM292.422 313.453V330.891H299.781V332.859H292.422V354.516H290.219V313.453H292.422ZM285.438 320.344V322.312H260.828V320.344H272.172V313.828H274.422V320.344H285.438ZM273.391 326.391C279.062 326.438 283.141 330.188 283.141 335.625C283.141 341.062 279.062 344.812 273.391 344.812C267.672 344.812 263.594 341.062 263.594 335.625C263.594 330.188 267.672 326.438 273.391 326.391ZM273.391 328.359C268.938 328.406 265.703 331.547 265.703 335.625C265.703 339.703 268.938 342.844 273.391 342.797C277.797 342.844 280.984 339.703 281.031 335.625C280.984 331.547 277.797 328.406 273.391 328.359ZM335.594 326.672V328.594H307.891V314.953H310.094V326.672H335.594ZM340.047 334.969V336.891H302.5V334.969H340.047ZM335.875 351.469V353.438H307.703V341.578H309.906V351.469H335.875ZM381.156 327.703C380.266 323.109 376.234 318.891 370.375 318.891C363.766 318.891 358.281 324.281 358.281 334.031C358.281 343.875 363.766 349.125 370.375 349.125C376.234 349.125 380.266 345 381.156 340.359H383.641C382.656 346.078 377.875 351.469 370.375 351.469C361.844 351.469 355.891 344.578 355.891 334.031C355.891 323.484 361.844 316.594 370.375 316.594C377.875 316.594 382.656 321.891 383.641 327.703H381.156ZM408.812 325.594C408.484 321.516 405.203 318.797 400.469 318.797C395.594 318.797 392.125 321.656 392.125 325.547C392.125 329.062 395.172 330.984 399.016 332.109L402.672 333.188C407.547 334.594 411.672 336.984 411.672 342.094C411.672 347.531 407.266 351.562 400.234 351.562C393.531 351.562 389.266 347.953 388.891 342.656H391.375C391.703 346.828 395.312 349.312 400.234 349.312C405.531 349.312 409.281 346.406 409.281 342.094C409.281 338.578 406.609 336.797 401.969 335.391L397.984 334.219C392.688 332.578 389.734 329.859 389.734 325.641C389.734 320.297 394.375 316.547 400.516 316.547C406.656 316.547 410.969 320.344 411.203 325.594H408.812ZM462.344 313.453V354.516H460.094V332.625H453.109V352.312H450.953V314.578H453.109V330.656H460.094V313.453H462.344ZM445.047 318.938C445.047 328.734 441.203 338.906 429.203 345.422L427.891 343.734C438.297 338.18 442.398 329.555 442.844 320.906H429.109V318.938H445.047ZM473.781 315.703V333.281H474.484C481.609 333.281 486.719 332.953 492.672 331.734L492.953 333.656C486.859 334.922 481.75 335.25 474.484 335.25H471.484V315.703H473.781ZM502.609 313.453V337.734H500.406V327.891H487.469V325.969H500.406V320.578H487.469V318.703H500.406V313.453H502.609ZM502.609 339.609V353.859H476.641V339.609H502.609ZM478.797 341.531V351.938H500.453V341.531H478.797ZM546.344 318.328V320.25H521.828V318.328H532.984V313.266H535.188V318.328H546.344ZM534.062 322.922C539.875 322.969 543.719 325.734 543.766 330.234C543.719 334.688 539.875 337.5 534.062 337.5C528.156 337.5 524.312 334.688 524.312 330.234C524.312 325.734 528.156 322.969 534.062 322.922ZM534.062 324.797C529.469 324.797 526.422 327.047 526.422 330.234C526.422 333.422 529.469 335.625 534.062 335.625C538.562 335.625 541.609 333.422 541.656 330.234C541.609 327.047 538.562 324.797 534.062 324.797ZM553.422 313.453V325.312H559.984V327.281H553.422V339.047H551.219V313.453H553.422ZM553.422 341.625V354.516H551.219V343.547H527.078V341.625H553.422ZM570.344 338.062V343.734H593.266V338.062H595.516V353.859H568.094V338.062H570.344ZM570.344 351.938H593.266V345.609H570.344V351.938ZM600.484 332.672V334.641H563.125V332.672H600.484ZM582.953 316.219C582.953 321.938 592.234 326.344 598.188 327.234L597.297 329.062C591.648 328.102 584.266 324.703 581.875 319.641C579.438 324.773 572.008 328.102 566.359 329.062L565.469 327.234C571.516 326.297 580.656 322.078 580.703 316.219V313.922H582.953V316.219ZM639.344 328.875C638.781 325.125 635.875 322.828 631.938 322.828C626.641 322.828 623.172 326.906 623.172 334.031C623.172 341.344 626.688 345.234 631.891 345.234C635.781 345.234 638.641 343.078 639.344 339.422L646.469 339.469C645.672 345.75 640.422 351.469 631.797 351.469C622.703 351.469 616 345.094 616 334.031C616 322.969 622.844 316.594 631.797 316.594C639.625 316.594 645.531 321.094 646.469 328.875H639.344ZM669.812 326.766C669.531 324.094 667.375 322.5 663.953 322.5C660.391 322.5 658.422 324.141 658.375 326.391C658.328 328.828 660.906 329.953 663.812 330.609L666.859 331.359C672.672 332.672 677.031 335.625 677.031 341.297C677.031 347.531 672.156 351.469 663.906 351.469C655.703 351.469 650.453 347.672 650.266 340.406H657.109C657.344 343.828 660.062 345.562 663.812 345.562C667.516 345.562 669.906 343.828 669.906 341.297C669.906 339 667.797 337.922 664.094 336.984L660.391 336.094C654.672 334.688 651.156 331.828 651.156 326.859C651.156 320.672 656.594 316.594 664 316.594C671.5 316.594 676.469 320.766 676.562 326.766H669.812ZM730 333.703V338.484H691.094V333.703H707.547V330.328H694.141V313.688H699.766V317.484H703.75V313.688H709.281V329.016H711.766V313.688H717.438V317.484H721.281V313.688H726.953V330.328H713.547V333.703H730ZM725.406 341.391V355.312H719.359V346.172H694.984V341.391H725.406ZM699.766 325.594H703.75V322.078H699.766V325.594ZM717.438 325.594H721.281V322.078H717.438V325.594ZM771.484 333.703V338.484H732.578V333.703H749.031V330.328H735.625V313.688H741.25V317.484H745.234V313.688H750.766V329.016H753.25V313.688H758.922V317.484H762.766V313.688H768.438V330.328H755.031V333.703H771.484ZM766.891 341.391V355.312H760.844V346.172H736.469V341.391H766.891ZM741.25 325.594H745.234V322.078H741.25V325.594ZM758.922 325.594H762.766V322.078H758.922V325.594Z" fill="white"/>
<path d="M105.734 385.613V387.418H101.797V400.215H99.6641V375.906H101.797V385.613H105.734ZM86.1289 378.312V392.23C89.6836 392.217 93.3066 391.943 97.3125 391.109L97.5859 392.941C93.4023 393.789 89.6289 394.035 85.9375 394.035H83.9961V378.312H86.1289ZM119.461 378.121V389.305H108.223V378.121H119.461ZM110.328 379.871V387.582H117.383V379.871H110.328ZM126.188 375.906V383.316H129.852V385.121H126.188V393.734H124.055V375.906H126.188ZM127.309 397.891V399.695H110.984V392.039H113.09V397.891H127.309ZM142.457 376.344C147.871 376.344 151.043 377.82 151.043 380.527C151.043 383.289 147.871 384.766 142.457 384.793C137.043 384.766 133.844 383.289 133.844 380.527C133.844 377.82 137.043 376.344 142.457 376.344ZM142.457 377.957C138.41 377.957 136.059 378.941 136.086 380.527C136.059 382.223 138.41 383.152 142.457 383.152C146.477 383.152 148.855 382.223 148.855 380.527C148.855 378.941 146.477 377.957 142.457 377.957ZM153.531 386.434V388.184H131.383V386.434H153.531ZM150.688 390.289V395.73H136.25V398.246H151.426V399.941H134.117V394.145H148.582V391.93H134.062V390.289H150.688ZM170.621 377.109C174.258 377.082 176.855 379.078 176.855 382.059C176.855 385.012 174.258 387.062 170.621 387.035C166.984 387.062 164.387 385.012 164.387 382.059C164.387 379.078 166.984 377.082 170.621 377.109ZM170.621 378.859C168.188 378.832 166.465 380.172 166.492 382.059C166.465 383.973 168.188 385.285 170.621 385.258C173.082 385.285 174.805 383.973 174.805 382.059C174.805 380.172 173.082 378.832 170.621 378.859ZM182.652 375.934V400.242H180.547V375.934H182.652ZM162.555 389.113C167.121 389.113 173.355 389.031 178.77 388.238L178.906 389.852C176.582 390.275 174.162 390.535 171.824 390.672V399.477H169.691V390.809C167.217 390.918 164.879 390.932 162.855 390.945L162.555 389.113ZM205.812 375.934V383.945H209.477V385.75H205.812V394.145H203.68V375.934H205.812ZM201.355 378.914V380.664H186.863V378.914H193.043V375.934H195.176V378.914H201.355ZM194.109 382.004C197.582 382.004 199.934 383.781 199.961 386.543C199.934 389.277 197.582 391.027 194.109 391.027C190.609 391.027 188.23 389.277 188.258 386.543C188.23 383.781 190.609 382.004 194.109 382.004ZM194.109 383.699C191.812 383.699 190.281 384.82 190.309 386.543C190.281 388.266 191.812 389.359 194.109 389.332C196.379 389.359 197.91 388.266 197.938 386.543C197.91 384.82 196.379 383.699 194.109 383.699ZM206.934 397.891V399.695H190.609V392.695H192.715V397.891H206.934ZM232.746 384.438C232.172 381.703 229.82 380.227 227.223 380.227C223.641 380.227 220.852 382.988 220.852 388.102C220.852 393.215 223.641 395.977 227.223 395.977C229.82 395.977 232.145 394.5 232.746 391.793H235.207C234.496 395.84 231.242 398.273 227.223 398.273C222.137 398.273 218.473 394.363 218.473 388.102C218.473 381.84 222.137 377.93 227.223 377.93C231.215 377.93 234.469 380.336 235.207 384.438H232.746ZM249.453 383.18C249.234 381.238 247.457 380.117 245.078 380.117C242.453 380.117 240.73 381.484 240.73 383.371C240.73 385.449 243.055 386.215 244.559 386.598L246.527 387.145C248.66 387.691 252.133 388.922 252.133 392.613C252.133 395.84 249.535 398.355 244.941 398.355C240.676 398.355 238.023 396.141 237.805 392.859H240.32C240.539 395.074 242.59 396.113 244.941 396.113C247.676 396.113 249.727 394.719 249.727 392.559C249.727 390.645 247.895 389.906 245.816 389.305L243.383 388.648C240.266 387.746 238.352 386.16 238.352 383.48C238.352 380.145 241.332 377.93 245.16 377.93C248.988 377.93 251.75 380.172 251.859 383.18H249.453ZM282.02 375.742V393.871H278.984V387.746H273.105C271.916 389.072 270.166 389.879 268.184 389.879C264.465 389.879 261.648 387.199 261.648 383.562C261.648 379.871 264.465 377.219 268.184 377.219C270.152 377.219 271.889 378.012 273.078 379.324H278.984V375.742H282.02ZM282.648 397.48V399.941H265.805V392.012H268.84V397.48H282.648ZM268.184 379.926C266.051 379.926 264.547 381.348 264.547 383.562C264.547 385.75 266.051 387.172 268.184 387.172C270.207 387.172 271.738 385.75 271.766 383.562C271.738 381.348 270.207 379.926 268.184 379.926ZM274.418 381.785C274.568 382.346 274.664 382.934 274.664 383.562C274.664 384.164 274.582 384.738 274.445 385.285H278.984V381.785H274.418ZM306.219 375.715V388.238H303.184V386.078H297.223V383.754H303.184V381.32H297.551C295.992 385.094 292.383 387.555 286.914 388.785L285.848 386.297C291.658 385.094 294.557 382.537 294.98 379.242H287.215V376.781H298.371C298.371 377.561 298.303 378.299 298.207 378.996H303.184V375.715H306.219ZM306.219 389.195V395.703H293.012V397.754H306.875V400.188H289.977V393.434H303.184V391.602H289.949V389.195H306.219ZM329.898 377.984V380.363C329.871 383.426 329.871 386.871 328.914 392.039L325.852 391.711C326.809 386.898 326.809 383.385 326.836 380.418H312.07V377.984H329.898ZM332.25 394.746V397.234H309.719V394.746H318.031V386.16H321.039V394.746H332.25ZM354.508 375.715V400.461H351.5V375.715H354.508ZM346.906 377.875V387.145H338.402V392.121C342.299 392.094 345.662 391.902 349.504 391.246L349.777 393.734C345.566 394.473 341.875 394.609 337.445 394.609H335.285V384.738H343.816V380.336H335.258V377.875H346.906ZM377.504 383.18V386.051H387.293V388.484H364.762V386.051H374.496V383.18H377.504ZM377.531 376.59C377.531 379.406 380.785 381.758 386.062 382.277L384.996 384.602C380.854 384.082 377.572 382.523 376 380.117C374.387 382.523 371.119 384.082 366.977 384.602L365.91 382.277C371.188 381.758 374.441 379.406 374.441 376.59V375.934H377.531V376.59ZM384.477 389.988V396.113H370.422V397.891H385.16V400.215H367.441V393.953H381.496V392.312H367.414V389.988H384.477ZM408.895 376.562V383.59H394.703V386.051H409.441V388.484H391.641V381.293H405.777V379.023H391.586V376.562H408.895ZM411.52 390.59V393.023H401.703V400.461H398.668V393.023H388.934V390.59H411.52ZM422.156 380.09C422.156 383.562 424.098 386.98 427.898 388.402L426.203 390.754C423.564 389.715 421.678 387.65 420.652 385.094C419.586 387.828 417.59 390.002 414.746 391.109L413.105 388.703C417.043 387.281 419.066 383.781 419.094 380.09V377.137H422.156V380.09ZM433.859 375.742V394.09H430.824V386.434H426.312V384H430.824V381.566H426.312V379.105H430.824V375.742H433.859ZM434.406 397.48V399.941H417.562V392.285H420.652V397.48H434.406ZM448.598 376.344C454.012 376.344 457.184 377.82 457.184 380.527C457.184 383.289 454.012 384.766 448.598 384.793C443.184 384.766 439.984 383.289 439.984 380.527C439.984 377.82 443.184 376.344 448.598 376.344ZM448.598 377.957C444.551 377.957 442.199 378.941 442.227 380.527C442.199 382.223 444.551 383.152 448.598 383.152C452.617 383.152 454.996 382.223 454.996 380.527C454.996 378.941 452.617 377.957 448.598 377.957ZM459.672 386.434V388.184H437.523V386.434H459.672ZM456.828 390.289V395.73H442.391V398.246H457.566V399.941H440.258V394.145H454.723V391.93H440.203V390.289H456.828ZM487.727 375.934V383.289H491.363V385.094H487.727V392.23H485.566V375.934H487.727ZM468.641 389.742C470.582 389.742 472.852 389.742 475.23 389.66V387.883C472.4 387.637 470.582 386.311 470.582 384.301C470.582 382.086 472.852 380.719 476.27 380.719C479.715 380.719 481.957 382.086 481.984 384.301C481.957 386.297 480.18 387.623 477.363 387.883V389.578C479.633 389.469 481.93 389.291 484.062 388.977L484.254 390.535C478.977 391.465 473.152 391.492 468.887 391.492L468.641 389.742ZM487.727 393.434V400.215H485.566V395.156H471.621V393.434H487.727ZM483.324 378.148V379.789H469.242V378.148H475.23V375.715H477.363V378.148H483.324ZM476.27 382.25C474.027 382.223 472.633 383.016 472.633 384.301C472.633 385.559 474.027 386.434 476.27 386.406C478.512 386.434 479.934 385.559 479.934 384.301C479.934 383.016 478.512 382.223 476.27 382.25ZM513.02 375.934V393.707H510.887V375.934H513.02ZM513.785 397.891V399.695H497.324V391.902H499.457V397.891H513.785ZM499.895 377.629C503.531 377.629 506.266 380.09 506.266 383.59C506.266 387.145 503.531 389.578 499.895 389.578C496.258 389.578 493.523 387.145 493.523 383.59C493.523 380.09 496.258 377.629 499.895 377.629ZM499.895 379.516C497.434 379.516 495.602 381.211 495.629 383.59C495.602 386.023 497.434 387.691 499.895 387.691C502.301 387.691 504.16 386.023 504.16 383.59C504.16 381.211 502.301 379.516 499.895 379.516ZM535.961 375.906V385.941H540.035V387.719H535.961V400.215H533.828V375.906H535.961ZM531.477 379.816V381.594H517.012V379.816H523.273V376.207H525.406V379.816H531.477ZM524.367 383.617C527.812 383.617 530.301 385.914 530.328 389.195C530.301 392.477 527.812 394.773 524.367 394.773C520.895 394.773 518.379 392.477 518.406 389.195C518.379 385.914 520.895 383.617 524.367 383.617ZM524.367 385.422C522.098 385.422 520.43 387.008 520.457 389.195C520.43 391.41 522.098 392.969 524.367 392.941C526.609 392.969 528.25 391.41 528.277 389.195C528.25 387.008 526.609 385.422 524.367 385.422ZM548.566 382.824C548.566 386.68 550.453 390.863 553.68 392.777L552.449 394.445C550.111 393.023 548.43 390.426 547.582 387.473C546.68 390.699 544.875 393.475 542.441 394.965L541.074 393.352C544.438 391.383 546.488 387.062 546.488 382.906V378.203H548.566V382.824ZM562.184 375.906V400.215H560.105V375.906H562.184ZM557.152 376.426V398.984H555.129V386.461H551V384.629H555.129V376.426H557.152ZM587.805 395.293V397.098H565.547V395.293H571.07V388.73C568.992 387.65 567.734 385.9 567.734 383.699C567.734 379.926 571.426 377.465 576.621 377.438C581.816 377.465 585.508 379.926 585.508 383.699C585.508 385.859 584.291 387.596 582.281 388.676V395.293H587.805ZM576.621 379.215C572.629 379.188 569.812 380.992 569.812 383.699C569.812 386.406 572.629 388.238 576.621 388.238C580.586 388.238 583.43 386.406 583.43 383.699C583.43 380.992 580.586 379.188 576.621 379.215ZM573.176 395.293H580.121V389.496C579.068 389.783 577.893 389.934 576.621 389.934C575.377 389.934 574.215 389.797 573.176 389.523V395.293ZM593.684 378.203L593.492 392.422H591.195L591.004 378.203H593.684ZM592.344 398.164C591.387 398.164 590.566 397.371 590.594 396.387C590.566 395.43 591.387 394.637 592.344 394.637C593.301 394.637 594.094 395.43 594.094 396.387C594.094 397.371 593.301 398.164 592.344 398.164Z" fill="#002C9A"/>
<path d="M1144.5 235.725C1161 234.225 1200.4 232.325 1226 236.725" stroke="#90A7F8"/>
<path d="M1328 259C1341.73 263.351 1376.87 276.112 1407.65 292.348" stroke="#90A7F8"/>
<defs>
<linearGradient id="paint0_linear_533_501" x1="1441" y1="323.144" x2="0.895288" y2="307.993" gradientUnits="userSpaceOnUse">
<stop offset="0.548077" stop-color="#4278FF"/>
<stop offset="1" stop-color="#3563E9"/>
</linearGradient>
</defs>
</svg>
