<svg width="1440" height="801" viewBox="0 0 1440 801" fill="none" xmlns="http://www.w3.org/2000/svg">
<path d="M456.951 571.809C93.9275 708.182 -30.9111 669.179 -47.9525 632.631L-53.5703 4.32812L1536.32 -69.6138L1540.27 372.065C1420.93 483.828 1386.83 488.897 1326.84 512.42C1261.45 538.061 1059.13 483.137 946.327 467.667C729.44 437.924 547.492 537.797 456.951 571.809Z" fill="#E8EFFF"/>
<path d="M458.604 528.614C128.839 646.364 16.1324 602.208 1 565.411V-54H1441V381.427C1390.17 457.266 1221 581.907 908 457.992C720.08 383.596 543.5 498.3 458.604 528.614Z" fill="url(#paint0_linear_337_692)"/>
<path d="M1147.5 235.999C1155.67 234.832 1181.6 233.199 1220 235.999" stroke="black"/>
<path d="M1554.92 404.576C1487.17 317.825 1253.33 172.514 1032.07 262.498C810.801 352.482 600.105 44.045 500.898 -118.574" stroke="#90A7F8"/>
<path d="M1181.85 86C1202.98 86 1220.1 103.122 1220.1 124.244V304.538C1220.1 325.66 1202.98 342.782 1181.85 342.782C1167.02 342.782 1157.65 343.278 1151.81 342.771V342.782H1116.18C1110.32 343.272 1100.98 342.782 1086.24 342.782C1065.12 342.782 1048 325.66 1048 304.538V124.244C1048 103.123 1065.12 86 1086.24 86C1107.37 86 1124.49 103.122 1124.49 124.244V151.562H1143.61V124.244C1143.61 103.123 1160.73 86.0001 1181.85 86ZM1135.42 217.123C1129.38 217.123 1124.49 222.015 1124.49 228.05V277.221C1124.49 283.255 1129.38 288.148 1135.42 288.148C1141.45 288.148 1146.34 283.255 1146.34 277.221V228.05C1146.34 222.015 1141.45 217.123 1135.42 217.123Z" fill="#3E72F4"/>
<path d="M1272 86C1250.88 86 1233.76 103.122 1233.76 124.244V304.538C1233.76 325.66 1250.88 342.782 1272 342.782C1286.84 342.782 1296.21 343.278 1302.05 342.771V342.782H1337.68C1343.53 343.272 1352.87 342.782 1367.61 342.782C1388.73 342.782 1405.86 325.66 1405.86 304.538V124.244C1405.86 103.123 1388.73 86 1367.61 86C1346.49 86 1329.37 103.122 1329.37 124.244V151.562H1310.25V124.244C1310.25 103.123 1293.12 86.0001 1272 86ZM1318.44 217.123C1324.48 217.123 1329.37 222.015 1329.37 228.05V277.221C1329.37 283.255 1324.48 288.148 1318.44 288.148C1312.41 288.148 1307.51 283.255 1307.51 277.221V228.05C1307.51 222.015 1312.41 217.123 1318.44 217.123Z" fill="#3E72F4"/>
<path d="M803.854 -23C824.976 -23 842.099 -5.87752 842.099 15.2441V195.538C842.099 216.66 824.976 233.782 803.854 233.782C789.016 233.782 779.65 234.278 773.806 233.771V233.782H738.177C732.325 234.272 722.985 233.782 708.244 233.782C687.122 233.782 670 216.66 670 195.538V15.2441C670 -5.8775 687.122 -23 708.244 -23C729.366 -23 746.488 -5.87752 746.488 15.2441V42.5615H765.61V15.2441C765.61 -5.87744 782.733 -22.9999 803.854 -23ZM757.415 108.123C751.38 108.123 746.488 113.015 746.488 119.05V168.221C746.488 174.255 751.38 179.148 757.415 179.148C763.45 179.148 768.342 174.255 768.342 168.221V119.05C768.342 113.015 763.45 108.123 757.415 108.123Z" fill="#3E72F4"/>
<path d="M894.002 -23C872.88 -23 855.758 -5.87752 855.758 15.2441V195.538C855.758 216.66 872.88 233.782 894.002 233.782C908.841 233.782 918.206 234.278 924.051 233.771V233.782H959.68C965.532 234.272 974.872 233.782 989.612 233.782C1010.73 233.782 1027.86 216.66 1027.86 195.538V15.2441C1027.86 -5.8775 1010.73 -23 989.612 -23C968.491 -23 951.368 -5.87752 951.368 15.2441V42.5615H932.246V15.2441C932.246 -5.87744 915.124 -22.9999 894.002 -23ZM940.441 108.123C946.476 108.123 951.368 113.015 951.368 119.05V168.221C951.368 174.255 946.476 179.148 940.441 179.148C934.407 179.148 929.515 174.255 929.515 168.221V119.05C929.515 113.015 934.407 108.123 940.441 108.123Z" fill="#3E72F4"/>
<path d="M-38.5059 1.98047C57.7134 100.165 359.368 244.908 599.826 95.3027C840.284 -54.303 1147.18 299.728 1295.12 488.331" stroke="#90A7F8"/>
<path d="M215.542 607.57C161.624 594.657 17.2878 467.408 -14.5377 320.746C-46.3632 174.084 -211.193 184.272 -303.902 175.319" stroke="#E8EFFF" stroke-opacity="0.5"/>
<path d="M-245 402.795C-201.528 437.24 -108.353 628.425 23.9956 557.088C156.344 485.75 351.989 481.978 433.032 537.447" stroke="#E8EFFF" stroke-opacity="0.5"/>
<path d="M1144.5 235.725C1161 234.225 1200.4 232.325 1226 236.725" stroke="#90A7F8"/>
<path d="M1328 259C1341.73 263.351 1376.87 276.112 1407.65 292.348" stroke="#90A7F8"/>
<path d="M93.1797 227.938C93.1797 231.383 94.9727 234.828 99.2266 236.445L96.8359 239.855C94.1113 238.818 92.2305 236.92 91.0703 234.547C89.9102 237.324 87.9062 239.645 84.918 240.875L82.4922 237.43C86.9922 235.461 88.8203 231.523 88.8203 227.938V224.176H93.1797V227.938ZM110.441 222.277V241.824H106.188V233.703H103.516V240.84H99.332V222.84H103.516V230.082H106.188V222.277H110.441ZM99.5078 242.281C106.258 242.281 110.582 244.531 110.617 248.258C110.582 251.984 106.258 254.234 99.5078 254.234C92.7227 254.234 88.4336 251.984 88.4336 248.258C88.4336 244.531 92.7227 242.281 99.5078 242.281ZM99.5078 245.621C95.3242 245.621 92.8984 246.535 92.9336 248.258C92.8984 249.98 95.3242 250.859 99.5078 250.859C103.656 250.859 106.082 249.98 106.082 248.258C106.082 246.535 103.656 245.621 99.5078 245.621ZM139.445 222.242V229.73H143.77V233.457H139.445V240.84H134.945V222.242H139.445ZM130.445 224.035C130.445 232.578 125.066 238.344 115.469 240.77L113.605 237.359C120.9 235.531 124.908 231.91 125.594 227.586H115.293V224.035H130.445ZM139.445 242.105V254.234H134.945V245.691H117.895V242.105H139.445ZM159.766 222.699C167.113 222.699 171.367 224.633 171.402 228.148C171.367 231.699 167.113 233.633 159.766 233.633C152.383 233.633 148.094 231.699 148.094 228.148C148.094 224.633 152.383 222.699 159.766 222.699ZM159.766 225.969C155.055 225.969 152.77 226.742 152.805 228.148C152.77 229.73 155.055 230.328 159.766 230.328C164.512 230.328 166.762 229.73 166.762 228.148C166.762 226.742 164.512 225.969 159.766 225.969ZM174.355 235.145V238.695H145.176V235.145H174.355ZM170.805 240.559V248.715H152.98V250.648H171.648V254.023H148.586V245.586H166.375V243.828H148.551V240.559H170.805ZM211.34 222.242V254.234H206.875V237.711H201.953C201.074 241.93 199.439 245.867 196.469 249.523L192.953 247.027C197.295 241.684 198.455 236.199 198.719 229.168H195.133V225.512H202.938C202.938 228.5 202.85 231.348 202.551 234.09H206.875V222.242H211.34ZM194.148 225.512C194.113 234.301 193.199 241.156 187.469 247.449L183.953 244.953C188.312 240.242 189.578 235.549 189.859 229.168H185.359V225.512H194.148ZM243.297 222.242V254.234H238.973V238.238H235.984V252.688H231.766V222.77H235.984V234.617H238.973V222.242H243.297ZM221.5 225.793V242.492C224.066 242.439 226.879 242.211 229.973 241.613L230.43 245.48C226.141 246.219 222.484 246.43 219.18 246.43H217V225.793H221.5ZM273.18 225.02V228.043C273.18 232.051 273.18 236.551 271.879 243.336L267.379 242.879C268.592 236.832 268.645 232.332 268.68 228.57H249.836V225.02H273.18ZM275.992 246.676V250.332H246.812V246.676H257.254V235.672H261.719V246.676H275.992ZM284.676 248.398L281.652 258.418H277.926L279.684 248.398H284.676ZM301.445 224.527V229.133H308.16V224.527H312.625V240.734H297.016V224.527H301.445ZM301.445 237.219H308.16V232.543H301.445V237.219ZM322.188 222.277V245.762H317.688V222.277H322.188ZM322.926 250.086V253.672H300.672V243.406H305.172V250.086H322.926ZM355.691 238.449V242H326.441V238.449H355.691ZM352.562 233.246V236.656H330.098V223.016H352.281V226.391H334.598V228.113H351.543V231.418H334.598V233.246H352.562ZM352.211 243.863V253.883H329.887V243.863H352.211ZM334.316 247.379V250.297H347.816V247.379H334.316ZM372.215 222.699C379.562 222.699 383.816 224.633 383.852 228.148C383.816 231.699 379.562 233.633 372.215 233.633C364.832 233.633 360.543 231.699 360.543 228.148C360.543 224.633 364.832 222.699 372.215 222.699ZM372.215 225.969C367.504 225.969 365.219 226.742 365.254 228.148C365.219 229.73 367.504 230.328 372.215 230.328C376.961 230.328 379.211 229.73 379.211 228.148C379.211 226.742 376.961 225.969 372.215 225.969ZM386.805 235.145V238.695H357.625V235.145H386.805ZM383.254 240.559V248.715H365.43V250.648H384.098V254.023H361.035V245.586H378.824V243.828H361V240.559H383.254ZM407.02 231.91C407.02 236.727 408.742 241.613 413.348 244.039L410.852 247.344C407.969 245.867 406.053 243.283 404.945 240.137C403.82 243.564 401.904 246.43 399.004 248.082L396.473 244.707C401.008 242.105 402.766 236.867 402.801 231.91V231.312H397.492V227.656H402.801V223.332H406.984V227.656H412.258V231.312H407.02V231.91ZM424.949 222.242V254.234H420.66V238.203H417.953V252.758H413.699V222.699H417.953V234.547H420.66V222.242H424.949ZM457.398 240.137V243.793H444.883V254.27H440.453V243.793H428.113V240.137H457.398ZM442.668 223.297C449.523 223.297 454.34 226.145 454.34 230.574C454.34 234.934 449.523 237.711 442.668 237.711C435.812 237.711 431.031 234.934 431.066 230.574C431.031 226.145 435.812 223.297 442.668 223.297ZM442.668 226.883C438.379 226.883 435.637 228.219 435.672 230.574C435.637 232.859 438.379 234.16 442.668 234.16C446.992 234.16 449.699 232.859 449.699 230.574C449.699 228.219 446.992 226.883 442.668 226.883ZM484.504 222.242V234.125H489.215V237.781H484.504V254.305H480.004V222.242H484.504ZM475.539 225.195V228.816H464.992V242.844C469.633 242.791 473.465 242.58 477.719 241.824L478.211 245.586C473.254 246.43 468.895 246.57 463.234 246.535H460.527V225.195H475.539ZM494.523 251.316C492.871 251.316 491.535 249.98 491.57 248.363C491.535 246.746 492.871 245.445 494.523 245.445C496.07 245.445 497.441 246.746 497.441 248.363C497.441 249.98 496.07 251.316 494.523 251.316ZM107.312 265.84V273.012H112.234V274.453H107.312V281.73H105.66V265.84H107.312ZM98.9102 267.773V279.797H85.0234V267.773H98.9102ZM86.6406 269.215V278.391H97.3281V269.215H86.6406ZM107.312 283.312V290.238H89.9102V294.703H108.613V296.145H88.293V288.867H105.66V284.754H88.1875V283.312H107.312ZM142.785 291.047V292.523H114.59V291.047H127.738V284.508H118.281V275.578H137.371V269.777H118.211V268.301H139.023V277.02H119.934V283.066H139.762V284.508H129.426V291.047H142.785ZM163.527 267.387C167.992 267.387 171.086 269.742 171.121 273.363C171.086 276.686 168.432 278.953 164.477 279.27V282.75C167.658 282.609 170.91 282.346 173.898 281.871L174.004 283.207C167.359 284.402 159.766 284.508 154.316 284.508L154.07 282.996C156.619 282.996 159.643 282.979 162.789 282.855V279.27C158.693 279.041 155.934 276.756 155.969 273.363C155.934 269.742 159.027 267.387 163.527 267.387ZM163.527 268.758C160.012 268.758 157.551 270.727 157.551 273.363C157.551 276 160.012 277.934 163.527 277.934C167.043 277.934 169.504 276 169.504 273.363C169.504 270.727 167.043 268.758 163.527 268.758ZM177.695 265.875V276.773H182.723V278.25H177.695V289.465H176.043V265.875H177.695ZM178.855 294.316V295.828H158.852V287.426H160.504V294.316H178.855ZM195.062 271.113C195.027 275.684 198.824 279.586 203.113 281.098L202.094 282.434C198.648 281.045 195.572 278.32 194.289 274.734C193.076 278.777 189.912 281.836 186.238 283.348L185.324 281.906C189.684 280.289 193.445 276.211 193.445 271.148V267.668H195.062V271.113ZM210.391 265.84V284.191H208.738V274.453H201.18V273.012H208.738V265.84H210.391ZM200.406 285.141C206.664 285.141 210.531 287.215 210.531 290.871C210.531 294.457 206.664 296.496 200.406 296.496C194.078 296.496 190.246 294.457 190.281 290.871C190.246 287.215 194.078 285.141 200.406 285.141ZM200.406 286.547C195.273 286.547 191.898 288.234 191.898 290.871C191.898 293.438 195.273 295.09 200.406 295.09C205.504 295.09 208.879 293.438 208.879 290.871C208.879 288.234 205.504 286.547 200.406 286.547ZM239.816 265.84V278.918H245.336V280.395H239.816V296.637H238.164V265.84H239.816ZM234.578 271.008V272.484H216.121V271.008H224.629V266.121H226.316V271.008H234.578ZM225.543 275.543C229.797 275.578 232.855 278.391 232.855 282.469C232.855 286.547 229.797 289.359 225.543 289.359C221.254 289.359 218.195 286.547 218.195 282.469C218.195 278.391 221.254 275.578 225.543 275.543ZM225.543 277.02C222.203 277.055 219.777 279.41 219.777 282.469C219.777 285.527 222.203 287.883 225.543 287.848C228.848 287.883 231.238 285.527 231.273 282.469C231.238 279.41 228.848 277.055 225.543 277.02ZM272.195 275.754V277.195H251.418V266.965H253.07V275.754H272.195ZM275.535 281.977V283.418H247.375V281.977H275.535ZM272.406 294.352V295.828H251.277V286.934H252.93V294.352H272.406ZM306.367 276.527C305.699 273.082 302.676 269.918 298.281 269.918C293.324 269.918 289.211 273.961 289.211 281.273C289.211 288.656 293.324 292.594 298.281 292.594C302.676 292.594 305.699 289.5 306.367 286.02H308.23C307.492 290.309 303.906 294.352 298.281 294.352C291.883 294.352 287.418 289.184 287.418 281.273C287.418 273.363 291.883 268.195 298.281 268.195C303.906 268.195 307.492 272.168 308.23 276.527H306.367ZM327.109 274.945C326.863 271.887 324.402 269.848 320.852 269.848C317.195 269.848 314.594 271.992 314.594 274.91C314.594 277.547 316.879 278.988 319.762 279.832L322.504 280.641C326.16 281.695 329.254 283.488 329.254 287.32C329.254 291.398 325.949 294.422 320.676 294.422C315.648 294.422 312.449 291.715 312.168 287.742H314.031C314.277 290.871 316.984 292.734 320.676 292.734C324.648 292.734 327.461 290.555 327.461 287.32C327.461 284.684 325.457 283.348 321.977 282.293L318.988 281.414C315.016 280.184 312.801 278.145 312.801 274.98C312.801 270.973 316.281 268.16 320.887 268.16C325.492 268.16 328.727 271.008 328.902 274.945H327.109ZM367.258 265.84V296.637H365.57V280.219H360.332V294.984H358.715V266.684H360.332V278.742H365.57V265.84H367.258ZM354.285 269.953C354.285 277.301 351.402 284.93 342.402 289.816L341.418 288.551C349.223 284.385 352.299 277.916 352.633 271.43H342.332V269.953H354.285ZM375.836 267.527V280.711H376.363C381.707 280.711 385.539 280.465 390.004 279.551L390.215 280.992C385.645 281.941 381.812 282.188 376.363 282.188H374.113V267.527H375.836ZM397.457 265.84V284.051H395.805V276.668H386.102V275.227H395.805V271.184H386.102V269.777H395.805V265.84H397.457ZM397.457 285.457V296.145H377.98V285.457H397.457ZM379.598 286.898V294.703H395.84V286.898H379.598ZM430.258 269.496V270.938H411.871V269.496H420.238V265.699H421.891V269.496H430.258ZM421.047 272.941C425.406 272.977 428.289 275.051 428.324 278.426C428.289 281.766 425.406 283.875 421.047 283.875C416.617 283.875 413.734 281.766 413.734 278.426C413.734 275.051 416.617 272.977 421.047 272.941ZM421.047 274.348C417.602 274.348 415.316 276.035 415.316 278.426C415.316 280.816 417.602 282.469 421.047 282.469C424.422 282.469 426.707 280.816 426.742 278.426C426.707 276.035 424.422 274.348 421.047 274.348ZM435.566 265.84V274.734H440.488V276.211H435.566V285.035H433.914V265.84H435.566ZM435.566 286.969V296.637H433.914V288.41H415.809V286.969H435.566ZM448.258 284.297V288.551H465.449V284.297H467.137V296.145H446.57V284.297H448.258ZM448.258 294.703H465.449V289.957H448.258V294.703ZM470.863 280.254V281.73H442.844V280.254H470.863ZM457.715 267.914C457.715 272.203 464.676 275.508 469.141 276.176L468.473 277.547C464.236 276.826 458.699 274.277 456.906 270.48C455.078 274.33 449.506 276.826 445.27 277.547L444.602 276.176C449.137 275.473 455.992 272.309 456.027 267.914V266.191H457.715V267.914ZM500.008 277.406C499.586 274.594 497.406 272.871 494.453 272.871C490.48 272.871 487.879 275.93 487.879 281.273C487.879 286.758 490.516 289.676 494.418 289.676C497.336 289.676 499.48 288.059 500.008 285.316L505.352 285.352C504.754 290.062 500.816 294.352 494.348 294.352C487.527 294.352 482.5 289.57 482.5 281.273C482.5 272.977 487.633 268.195 494.348 268.195C500.219 268.195 504.648 271.57 505.352 277.406H500.008ZM522.859 275.824C522.648 273.82 521.031 272.625 518.465 272.625C515.793 272.625 514.316 273.855 514.281 275.543C514.246 277.371 516.18 278.215 518.359 278.707L520.645 279.27C525.004 280.254 528.273 282.469 528.273 286.723C528.273 291.398 524.617 294.352 518.43 294.352C512.277 294.352 508.34 291.504 508.199 286.055H513.332C513.508 288.621 515.547 289.922 518.359 289.922C521.137 289.922 522.93 288.621 522.93 286.723C522.93 285 521.348 284.191 518.57 283.488L515.793 282.82C511.504 281.766 508.867 279.621 508.867 275.895C508.867 271.254 512.945 268.195 518.5 268.195C524.125 268.195 527.852 271.324 527.922 275.824H522.859ZM568 281.027V284.613H538.82V281.027H551.16V278.496H541.105V266.016H545.324V268.863H548.312V266.016H552.461V277.512H554.324V266.016H558.578V268.863H561.461V266.016H565.715V278.496H555.66V281.027H568ZM564.555 286.793V297.234H560.02V290.379H541.738V286.793H564.555ZM545.324 274.945H548.312V272.309H545.324V274.945ZM558.578 274.945H561.461V272.309H558.578V274.945ZM599.113 281.027V284.613H569.934V281.027H582.273V278.496H572.219V266.016H576.438V268.863H579.426V266.016H583.574V277.512H585.438V266.016H589.691V268.863H592.574V266.016H596.828V278.496H586.773V281.027H599.113ZM595.668 286.793V297.234H591.133V290.379H572.852V286.793H595.668ZM576.438 274.945H579.426V272.309H576.438V274.945ZM589.691 274.945H592.574V272.309H589.691V274.945Z" fill="white"/>
<path d="M102.344 325.383V326.93H98.9688V337.898H97.1406V317.062H98.9688V325.383H102.344ZM85.5391 319.125V331.055C88.5859 331.043 91.6914 330.809 95.125 330.094L95.3594 331.664C91.7734 332.391 88.5391 332.602 85.375 332.602H83.7109V319.125H85.5391ZM114.109 318.961V328.547H104.477V318.961H114.109ZM106.281 320.461V327.07H112.328V320.461H106.281ZM119.875 317.062V323.414H123.016V324.961H119.875V332.344H118.047V317.062H119.875ZM120.836 335.906V337.453H106.844V330.891H108.648V335.906H120.836ZM133.82 317.438C138.461 317.438 141.18 318.703 141.18 321.023C141.18 323.391 138.461 324.656 133.82 324.68C129.18 324.656 126.438 323.391 126.438 321.023C126.438 318.703 129.18 317.438 133.82 317.438ZM133.82 318.82C130.352 318.82 128.336 319.664 128.359 321.023C128.336 322.477 130.352 323.273 133.82 323.273C137.266 323.273 139.305 322.477 139.305 321.023C139.305 319.664 137.266 318.82 133.82 318.82ZM143.312 326.086V327.586H124.328V326.086H143.312ZM140.875 329.391V334.055H128.5V336.211H141.508V337.664H126.672V332.695H139.07V330.797H126.625V329.391H140.875ZM157.961 318.094C161.078 318.07 163.305 319.781 163.305 322.336C163.305 324.867 161.078 326.625 157.961 326.602C154.844 326.625 152.617 324.867 152.617 322.336C152.617 319.781 154.844 318.07 157.961 318.094ZM157.961 319.594C155.875 319.57 154.398 320.719 154.422 322.336C154.398 323.977 155.875 325.102 157.961 325.078C160.07 325.102 161.547 323.977 161.547 322.336C161.547 320.719 160.07 319.57 157.961 319.594ZM168.273 317.086V337.922H166.469V317.086H168.273ZM151.047 328.383C154.961 328.383 160.305 328.312 164.945 327.633L165.062 329.016C163.07 329.379 160.996 329.602 158.992 329.719V337.266H157.164V329.836C155.043 329.93 153.039 329.941 151.305 329.953L151.047 328.383ZM188.125 317.086V323.953H191.266V325.5H188.125V332.695H186.297V317.086H188.125ZM184.305 319.641V321.141H171.883V319.641H177.18V317.086H179.008V319.641H184.305ZM178.094 322.289C181.07 322.289 183.086 323.812 183.109 326.18C183.086 328.523 181.07 330.023 178.094 330.023C175.094 330.023 173.055 328.523 173.078 326.18C173.055 323.812 175.094 322.289 178.094 322.289ZM178.094 323.742C176.125 323.742 174.812 324.703 174.836 326.18C174.812 327.656 176.125 328.594 178.094 328.57C180.039 328.594 181.352 327.656 181.375 326.18C181.352 324.703 180.039 323.742 178.094 323.742ZM189.086 335.906V337.453H175.094V331.453H176.898V335.906H189.086ZM204.578 336.258C200.969 336.258 198.766 333.516 198.766 329.695C198.766 325.828 201.062 323.109 204.531 323.109C207.25 323.109 209.266 324.703 209.594 327.117H207.578C207.297 325.945 206.266 324.891 204.578 324.891C202.305 324.891 200.781 326.766 200.781 329.625C200.781 332.578 202.258 334.453 204.578 334.453C206.078 334.453 207.227 333.656 207.578 332.25H209.594C209.266 334.523 207.414 336.258 204.578 336.258ZM219.156 326.578C218.875 325.523 218.078 324.82 216.578 324.82C215.008 324.82 213.883 325.664 213.883 326.742C213.883 327.586 214.562 328.172 216.062 328.523L217.961 328.992C220.234 329.531 221.359 330.656 221.359 332.438C221.359 334.641 219.555 336.258 216.367 336.258C213.508 336.258 211.797 334.992 211.469 332.672H213.578C213.812 333.914 214.727 334.5 216.32 334.5C218.125 334.5 219.273 333.75 219.273 332.555C219.273 331.664 218.641 331.055 217.188 330.727L215.266 330.281C213.039 329.766 211.867 328.547 211.867 326.859C211.867 324.68 213.766 323.109 216.578 323.109C219.203 323.109 220.867 324.516 221.125 326.578H219.156ZM246.836 316.922V332.461H244.234V327.211H239.195C238.176 328.348 236.676 329.039 234.977 329.039C231.789 329.039 229.375 326.742 229.375 323.625C229.375 320.461 231.789 318.188 234.977 318.188C236.664 318.188 238.152 318.867 239.172 319.992H244.234V316.922H246.836ZM247.375 335.555V337.664H232.938V330.867H235.539V335.555H247.375ZM234.977 320.508C233.148 320.508 231.859 321.727 231.859 323.625C231.859 325.5 233.148 326.719 234.977 326.719C236.711 326.719 238.023 325.5 238.047 323.625C238.023 321.727 236.711 320.508 234.977 320.508ZM240.32 322.102C240.449 322.582 240.531 323.086 240.531 323.625C240.531 324.141 240.461 324.633 240.344 325.102H244.234V322.102H240.32ZM267.578 316.898V327.633H264.977V325.781H259.867V323.789H264.977V321.703H260.148C258.812 324.938 255.719 327.047 251.031 328.102L250.117 325.969C255.098 324.938 257.582 322.746 257.945 319.922H251.289V317.812H260.852C260.852 318.48 260.793 319.113 260.711 319.711H264.977V316.898H267.578ZM267.578 328.453V334.031H256.258V335.789H268.141V337.875H253.656V332.086H264.977V330.516H253.633V328.453H267.578ZM287.875 318.844V320.883C287.852 323.508 287.852 326.461 287.031 330.891L284.406 330.609C285.227 326.484 285.227 323.473 285.25 320.93H272.594V318.844H287.875ZM289.891 333.211V335.344H270.578V333.211H277.703V325.852H280.281V333.211H289.891ZM308.969 316.898V338.109H306.391V316.898H308.969ZM302.453 318.75V326.695H295.164V330.961C298.504 330.938 301.387 330.773 304.68 330.211L304.914 332.344C301.305 332.977 298.141 333.094 294.344 333.094H292.492V324.633H299.805V320.859H292.469V318.75H302.453ZM328.68 323.297V325.758H337.07V327.844H317.758V325.758H326.102V323.297H328.68ZM328.703 317.648C328.703 320.062 331.492 322.078 336.016 322.523L335.102 324.516C331.551 324.07 328.738 322.734 327.391 320.672C326.008 322.734 323.207 324.07 319.656 324.516L318.742 322.523C323.266 322.078 326.055 320.062 326.055 317.648V317.086H328.703V317.648ZM334.656 329.133V334.383H322.609V335.906H335.242V337.898H320.055V332.531H332.102V331.125H320.031V329.133H334.656ZM355.586 317.625V323.648H343.422V325.758H356.055V327.844H340.797V321.68H352.914V319.734H340.75V317.625H355.586ZM357.836 329.648V331.734H349.422V338.109H346.82V331.734H338.477V329.648H357.836ZM366.953 320.648C366.953 323.625 368.617 326.555 371.875 327.773L370.422 329.789C368.16 328.898 366.543 327.129 365.664 324.938C364.75 327.281 363.039 329.145 360.602 330.094L359.195 328.031C362.57 326.812 364.305 323.812 364.328 320.648V318.117H366.953V320.648ZM376.984 316.922V332.648H374.383V326.086H370.516V324H374.383V321.914H370.516V319.805H374.383V316.922H376.984ZM377.453 335.555V337.664H363.016V331.102H365.664V335.555H377.453ZM389.617 317.438C394.258 317.438 396.977 318.703 396.977 321.023C396.977 323.391 394.258 324.656 389.617 324.68C384.977 324.656 382.234 323.391 382.234 321.023C382.234 318.703 384.977 317.438 389.617 317.438ZM389.617 318.82C386.148 318.82 384.133 319.664 384.156 321.023C384.133 322.477 386.148 323.273 389.617 323.273C393.062 323.273 395.102 322.477 395.102 321.023C395.102 319.664 393.062 318.82 389.617 318.82ZM399.109 326.086V327.586H380.125V326.086H399.109ZM396.672 329.391V334.055H384.297V336.211H397.305V337.664H382.469V332.695H394.867V330.797H382.422V329.391H396.672ZM423.156 317.086V323.391H426.273V324.938H423.156V331.055H421.305V317.086H423.156ZM406.797 328.922C408.461 328.922 410.406 328.922 412.445 328.852V327.328C410.02 327.117 408.461 325.98 408.461 324.258C408.461 322.359 410.406 321.188 413.336 321.188C416.289 321.188 418.211 322.359 418.234 324.258C418.211 325.969 416.688 327.105 414.273 327.328V328.781C416.219 328.688 418.188 328.535 420.016 328.266L420.18 329.602C415.656 330.398 410.664 330.422 407.008 330.422L406.797 328.922ZM423.156 332.086V337.898H421.305V333.562H409.352V332.086H423.156ZM419.383 318.984V320.391H407.312V318.984H412.445V316.898H414.273V318.984H419.383ZM413.336 322.5C411.414 322.477 410.219 323.156 410.219 324.258C410.219 325.336 411.414 326.086 413.336 326.062C415.258 326.086 416.477 325.336 416.477 324.258C416.477 323.156 415.258 322.477 413.336 322.5ZM444.836 317.086V332.32H443.008V317.086H444.836ZM445.492 335.906V337.453H431.383V330.773H433.211V335.906H445.492ZM433.586 318.539C436.703 318.539 439.047 320.648 439.047 323.648C439.047 326.695 436.703 328.781 433.586 328.781C430.469 328.781 428.125 326.695 428.125 323.648C428.125 320.648 430.469 318.539 433.586 318.539ZM433.586 320.156C431.477 320.156 429.906 321.609 429.93 323.648C429.906 325.734 431.477 327.164 433.586 327.164C435.648 327.164 437.242 325.734 437.242 323.648C437.242 321.609 435.648 320.156 433.586 320.156ZM464.5 317.062V325.664H467.992V327.188H464.5V337.898H462.672V317.062H464.5ZM460.656 320.414V321.938H448.258V320.414H453.625V317.32H455.453V320.414H460.656ZM454.562 323.672C457.516 323.672 459.648 325.641 459.672 328.453C459.648 331.266 457.516 333.234 454.562 333.234C451.586 333.234 449.43 331.266 449.453 328.453C449.43 325.641 451.586 323.672 454.562 323.672ZM454.562 325.219C452.617 325.219 451.188 326.578 451.211 328.453C451.188 330.352 452.617 331.688 454.562 331.664C456.484 331.688 457.891 330.352 457.914 328.453C457.891 326.578 456.484 325.219 454.562 325.219ZM475.305 322.992C475.305 326.297 476.922 329.883 479.688 331.523L478.633 332.953C476.629 331.734 475.188 329.508 474.461 326.977C473.688 329.742 472.141 332.121 470.055 333.398L468.883 332.016C471.766 330.328 473.523 326.625 473.523 323.062V319.031H475.305V322.992ZM486.977 317.062V337.898H485.195V317.062H486.977ZM482.664 317.508V336.844H480.93V326.109H477.391V324.539H480.93V317.508H482.664ZM508.938 333.68V335.227H489.859V333.68H494.594V328.055C492.812 327.129 491.734 325.629 491.734 323.742C491.734 320.508 494.898 318.398 499.352 318.375C503.805 318.398 506.969 320.508 506.969 323.742C506.969 325.594 505.926 327.082 504.203 328.008V333.68H508.938ZM499.352 319.898C495.93 319.875 493.516 321.422 493.516 323.742C493.516 326.062 495.93 327.633 499.352 327.633C502.75 327.633 505.188 326.062 505.188 323.742C505.188 321.422 502.75 319.875 499.352 319.898ZM496.398 333.68H502.352V328.711C501.449 328.957 500.441 329.086 499.352 329.086C498.285 329.086 497.289 328.969 496.398 328.734V333.68ZM513.977 319.031L513.812 331.219H511.844L511.68 319.031H513.977ZM512.828 336.141C512.008 336.141 511.305 335.461 511.328 334.617C511.305 333.797 512.008 333.117 512.828 333.117C513.648 333.117 514.328 333.797 514.328 334.617C514.328 335.461 513.648 336.141 512.828 336.141Z" fill="#002C9A"/>
<defs>
<linearGradient id="paint0_linear_337_692" x1="1441" y1="276.063" x2="0.943994" y2="258.752" gradientUnits="userSpaceOnUse">
<stop offset="0.548077" stop-color="#4278FF"/>
<stop offset="1" stop-color="#3563E9"/>
</linearGradient>
</defs>
</svg>
