<svg width="1440" height="792" viewBox="0 0 1440 792" fill="none" xmlns="http://www.w3.org/2000/svg">
<path d="M457.615 554.288C94.7247 674.215 -30.1642 638.86 -47.2473 606.192L-53.5693 45.9121L1536.32 -12.6802L1540.77 381.18C1421.54 480.287 1387.45 484.65 1327.48 505.348C1262.12 527.91 1059.72 478 946.899 463.685C729.968 436.162 548.122 524.378 457.615 554.288Z" fill="#E8EFFF"/>
<path d="M458.604 527.803C128.839 634.474 16.1324 594.472 1 561.138V0.00195312H1441V394.464C1390.17 463.167 1221 576.081 908 463.825C720.08 396.428 543.5 500.341 458.604 527.803Z" fill="url(#paint0_linear_539_412)"/>
<path d="M1153.6 275.481C1161.77 274.459 1187.7 273.029 1226.1 275.481" stroke="black"/>
<path d="M1561.03 423.08C1493.29 347.091 1259.45 219.806 1038.19 298.627C816.92 377.448 606.224 107.273 507.017 -35.1733" stroke="#90A7F8"/>
<path d="M1184.16 135.33C1205.64 135.33 1223.06 152.453 1223.06 173.574V353.868C1223.06 374.99 1205.64 392.112 1184.16 392.112C1169.07 392.112 1159.54 392.608 1153.6 392.102V392.112H1117.36C1111.41 392.602 1101.91 392.112 1086.91 392.112C1065.43 392.112 1048.02 374.99 1048.02 353.868V173.574C1048.02 152.453 1065.43 135.33 1086.91 135.33C1108.4 135.33 1125.81 152.453 1125.81 173.574V200.892H1145.26V173.574C1145.26 152.453 1162.68 135.33 1184.16 135.33ZM1136.93 266.453C1130.79 266.453 1125.81 271.429 1125.81 277.566V326.364C1125.81 332.502 1130.79 337.477 1136.93 337.478C1143.06 337.478 1148.04 332.502 1148.04 326.364V277.566C1148.04 271.429 1143.06 266.453 1136.93 266.453Z" fill="#3E72F4"/>
<path d="M1275.85 135.33C1254.36 135.33 1236.95 152.453 1236.95 173.574V353.868C1236.95 374.99 1254.36 392.112 1275.85 392.112C1290.94 392.112 1300.47 392.608 1306.41 392.102V392.112H1342.65C1348.6 392.602 1358.1 392.112 1373.09 392.112C1394.58 392.112 1411.99 374.99 1411.99 353.868V173.574C1411.99 152.453 1394.58 135.33 1373.09 135.33C1351.61 135.33 1334.2 152.453 1334.2 173.574V200.892H1314.75V173.574C1314.75 152.453 1297.33 135.33 1275.85 135.33ZM1323.08 266.453C1329.22 266.453 1334.2 271.429 1334.2 277.566V326.364C1334.2 332.502 1329.22 337.478 1323.08 337.478C1316.94 337.478 1311.97 332.502 1311.97 326.364V277.566C1311.97 271.429 1316.94 266.453 1323.08 266.453Z" fill="#3E72F4"/>
<path d="M806.141 28.1504C827.624 28.1504 845.04 45.2729 845.04 66.3945V246.688C845.04 267.81 827.624 284.933 806.141 284.933C791.049 284.933 781.523 285.428 775.579 284.922V284.935H739.319C733.365 285.422 723.871 284.933 708.896 284.933C687.413 284.933 669.998 267.81 669.998 246.688V66.3945C669.998 45.2729 687.413 28.1504 708.896 28.1504C730.379 28.1504 747.794 45.2729 747.794 66.3945V93.7139H767.244V66.3945C767.244 45.273 784.658 28.1506 806.141 28.1504ZM758.908 159.273C752.77 159.273 747.795 164.249 747.794 170.387V219.185C747.795 225.322 752.77 230.298 758.908 230.298C765.046 230.298 770.022 225.322 770.022 219.185V170.387C770.022 164.249 765.046 159.273 758.908 159.273Z" fill="#3E72F4"/>
<path d="M897.831 28.1504C876.348 28.1504 858.932 45.2729 858.932 66.3945V246.688C858.932 267.81 876.348 284.933 897.831 284.933C912.923 284.933 922.449 285.428 928.393 284.922V284.935H964.653C970.606 285.422 980.101 284.933 995.076 284.933C1016.56 284.933 1033.97 267.81 1033.97 246.688V66.3945C1033.97 45.2729 1016.56 28.1504 995.076 28.1504C973.593 28.1504 956.177 45.2729 956.177 66.3945V93.7139H936.728V66.3945C936.728 45.273 919.313 28.1506 897.831 28.1504ZM945.064 159.273C951.202 159.273 956.178 164.249 956.178 170.387V219.185C956.178 225.322 951.202 230.298 945.064 230.298C938.926 230.298 933.951 225.322 933.951 219.185V170.387C933.951 164.249 938.926 159.273 945.064 159.273Z" fill="#3E72F4"/>
<path d="M-38.5059 50.0312C58.2501 138.01 360.884 268.398 600.979 136.017C841.074 3.63656 1149.86 320.692 1298.78 489.531" stroke="#90A7F8"/>
<path d="M213.458 642.344C159.54 629.415 15.2038 502.007 -16.6217 355.163C-48.4471 208.32 -213.277 218.52 -305.986 209.556" stroke="#E8EFFF" stroke-opacity="0.5"/>
<path d="M-247.076 437.312C-203.603 471.8 -110.428 663.223 21.92 591.797C154.268 520.371 349.914 516.594 430.957 572.132" stroke="#E8EFFF" stroke-opacity="0.5"/>
<path d="M93.1802 254.938C93.1802 258.383 94.9731 261.828 99.2271 263.445L96.8364 266.855C94.1118 265.818 92.231 263.92 91.0708 261.547C89.9106 264.324 87.9067 266.645 84.9185 267.875L82.4927 264.43C86.9927 262.461 88.8208 258.523 88.8208 254.938V251.176H93.1802V254.938ZM110.442 249.277V268.824H106.188V260.703H103.516V267.84H99.3325V249.84H103.516V257.082H106.188V249.277H110.442ZM99.5083 269.281C106.258 269.281 110.583 271.531 110.618 275.258C110.583 278.984 106.258 281.234 99.5083 281.234C92.7231 281.234 88.4341 278.984 88.4341 275.258C88.4341 271.531 92.7231 269.281 99.5083 269.281ZM99.5083 272.621C95.3247 272.621 92.8989 273.535 92.9341 275.258C92.8989 276.98 95.3247 277.859 99.5083 277.859C103.657 277.859 106.083 276.98 106.083 275.258C106.083 273.535 103.657 272.621 99.5083 272.621ZM139.446 249.242V256.73H143.77V260.457H139.446V267.84H134.946V249.242H139.446ZM130.446 251.035C130.446 259.578 125.067 265.344 115.469 267.77L113.606 264.359C120.901 262.531 124.909 258.91 125.594 254.586H115.293V251.035H130.446ZM139.446 269.105V281.234H134.946V272.691H117.895V269.105H139.446ZM159.766 249.699C167.114 249.699 171.368 251.633 171.403 255.148C171.368 258.699 167.114 260.633 159.766 260.633C152.383 260.633 148.094 258.699 148.094 255.148C148.094 251.633 152.383 249.699 159.766 249.699ZM159.766 252.969C155.055 252.969 152.77 253.742 152.805 255.148C152.77 256.73 155.055 257.328 159.766 257.328C164.512 257.328 166.762 256.73 166.762 255.148C166.762 253.742 164.512 252.969 159.766 252.969ZM174.356 262.145V265.695H145.176V262.145H174.356ZM170.805 267.559V275.715H152.981V277.648H171.649V281.023H148.586V272.586H166.375V270.828H148.551V267.559H170.805ZM211.34 249.242V281.234H206.875V264.711H201.954C201.075 268.93 199.44 272.867 196.469 276.523L192.954 274.027C197.295 268.684 198.456 263.199 198.719 256.168H195.133V252.512H202.938C202.938 255.5 202.85 258.348 202.551 261.09H206.875V249.242H211.34ZM194.149 252.512C194.114 261.301 193.2 268.156 187.469 274.449L183.954 271.953C188.313 267.242 189.579 262.549 189.86 256.168H185.36V252.512H194.149ZM243.297 249.242V281.234H238.973V265.238H235.985V279.688H231.766V249.77H235.985V261.617H238.973V249.242H243.297ZM221.5 252.793V269.492C224.067 269.439 226.879 269.211 229.973 268.613L230.43 272.48C226.141 273.219 222.485 273.43 219.18 273.43H217V252.793H221.5ZM273.18 252.02V255.043C273.18 259.051 273.18 263.551 271.879 270.336L267.379 269.879C268.592 263.832 268.645 259.332 268.68 255.57H249.836V252.02H273.18ZM275.993 273.676V277.332H246.813V273.676H257.254V262.672H261.719V273.676H275.993ZM284.676 275.398L281.653 285.418H277.926L279.684 275.398H284.676ZM301.446 251.527V256.133H308.161V251.527H312.625V267.734H297.016V251.527H301.446ZM301.446 264.219H308.161V259.543H301.446V264.219ZM322.188 249.277V272.762H317.688V249.277H322.188ZM322.926 277.086V280.672H300.672V270.406H305.172V277.086H322.926ZM355.692 265.449V269H326.442V265.449H355.692ZM352.563 260.246V263.656H330.098V250.016H352.282V253.391H334.598V255.113H351.543V258.418H334.598V260.246H352.563ZM352.211 270.863V280.883H329.887V270.863H352.211ZM334.317 274.379V277.297H347.817V274.379H334.317ZM372.215 249.699C379.563 249.699 383.817 251.633 383.852 255.148C383.817 258.699 379.563 260.633 372.215 260.633C364.833 260.633 360.543 258.699 360.543 255.148C360.543 251.633 364.833 249.699 372.215 249.699ZM372.215 252.969C367.504 252.969 365.219 253.742 365.254 255.148C365.219 256.73 367.504 257.328 372.215 257.328C376.961 257.328 379.211 256.73 379.211 255.148C379.211 253.742 376.961 252.969 372.215 252.969ZM386.805 262.145V265.695H357.625V262.145H386.805ZM383.254 267.559V275.715H365.43V277.648H384.098V281.023H361.036V272.586H378.825V270.828H361V267.559H383.254ZM407.02 258.91C407.02 263.727 408.743 268.613 413.348 271.039L410.852 274.344C407.969 272.867 406.053 270.283 404.946 267.137C403.821 270.564 401.905 273.43 399.004 275.082L396.473 271.707C401.008 269.105 402.766 263.867 402.801 258.91V258.312H397.493V254.656H402.801V250.332H406.985V254.656H412.258V258.312H407.02V258.91ZM424.95 249.242V281.234H420.661V265.203H417.954V279.758H413.7V249.699H417.954V261.547H420.661V249.242H424.95ZM457.399 267.137V270.793H444.883V281.27H440.454V270.793H428.114V267.137H457.399ZM442.668 250.297C449.524 250.297 454.34 253.145 454.34 257.574C454.34 261.934 449.524 264.711 442.668 264.711C435.813 264.711 431.032 261.934 431.067 257.574C431.032 253.145 435.813 250.297 442.668 250.297ZM442.668 253.883C438.379 253.883 435.637 255.219 435.672 257.574C435.637 259.859 438.379 261.16 442.668 261.16C446.993 261.16 449.7 259.859 449.7 257.574C449.7 255.219 446.993 253.883 442.668 253.883ZM484.504 249.242V261.125H489.215V264.781H484.504V281.305H480.004V249.242H484.504ZM475.54 252.195V255.816H464.993V269.844C469.633 269.791 473.465 269.58 477.719 268.824L478.211 272.586C473.254 273.43 468.895 273.57 463.235 273.535H460.528V252.195H475.54ZM494.524 278.316C492.872 278.316 491.536 276.98 491.571 275.363C491.536 273.746 492.872 272.445 494.524 272.445C496.071 272.445 497.442 273.746 497.442 275.363C497.442 276.98 496.071 278.316 494.524 278.316ZM107.313 292.84V300.012H112.235V301.453H107.313V308.73H105.661V292.84H107.313ZM98.9106 294.773V306.797H85.0239V294.773H98.9106ZM86.6411 296.215V305.391H97.3286V296.215H86.6411ZM107.313 310.312V317.238H89.9106V321.703H108.614V323.145H88.2935V315.867H105.661V311.754H88.188V310.312H107.313ZM142.786 318.047V319.523H114.59V318.047H127.739V311.508H118.282V302.578H137.372V296.777H118.211V295.301H139.024V304.02H119.934V310.066H139.762V311.508H129.426V318.047H142.786ZM163.528 294.387C167.993 294.387 171.086 296.742 171.122 300.363C171.086 303.686 168.432 305.953 164.477 306.27V309.75C167.659 309.609 170.911 309.346 173.899 308.871L174.004 310.207C167.36 311.402 159.766 311.508 154.317 311.508L154.071 309.996C156.62 309.996 159.643 309.979 162.79 309.855V306.27C158.694 306.041 155.934 303.756 155.969 300.363C155.934 296.742 159.028 294.387 163.528 294.387ZM163.528 295.758C160.012 295.758 157.551 297.727 157.551 300.363C157.551 303 160.012 304.934 163.528 304.934C167.043 304.934 169.504 303 169.504 300.363C169.504 297.727 167.043 295.758 163.528 295.758ZM177.696 292.875V303.773H182.723V305.25H177.696V316.465H176.043V292.875H177.696ZM178.856 321.316V322.828H158.852V314.426H160.504V321.316H178.856ZM195.063 298.113C195.028 302.684 198.825 306.586 203.114 308.098L202.094 309.434C198.649 308.045 195.573 305.32 194.29 301.734C193.077 305.777 189.913 308.836 186.239 310.348L185.325 308.906C189.684 307.289 193.446 303.211 193.446 298.148V294.668H195.063V298.113ZM210.391 292.84V311.191H208.739V301.453H201.18V300.012H208.739V292.84H210.391ZM200.407 312.141C206.665 312.141 210.532 314.215 210.532 317.871C210.532 321.457 206.665 323.496 200.407 323.496C194.079 323.496 190.247 321.457 190.282 317.871C190.247 314.215 194.079 312.141 200.407 312.141ZM200.407 313.547C195.274 313.547 191.899 315.234 191.899 317.871C191.899 320.438 195.274 322.09 200.407 322.09C205.504 322.09 208.879 320.438 208.879 317.871C208.879 315.234 205.504 313.547 200.407 313.547ZM239.817 292.84V305.918H245.336V307.395H239.817V323.637H238.165V292.84H239.817ZM234.579 298.008V299.484H216.122V298.008H224.629V293.121H226.317V298.008H234.579ZM225.543 302.543C229.797 302.578 232.856 305.391 232.856 309.469C232.856 313.547 229.797 316.359 225.543 316.359C221.254 316.359 218.196 313.547 218.196 309.469C218.196 305.391 221.254 302.578 225.543 302.543ZM225.543 304.02C222.204 304.055 219.778 306.41 219.778 309.469C219.778 312.527 222.204 314.883 225.543 314.848C228.848 314.883 231.239 312.527 231.274 309.469C231.239 306.41 228.848 304.055 225.543 304.02ZM272.196 302.754V304.195H251.418V293.965H253.071V302.754H272.196ZM275.536 308.977V310.418H247.375V308.977H275.536ZM272.407 321.352V322.828H251.278V313.934H252.93V321.352H272.407ZM306.368 303.527C305.7 300.082 302.676 296.918 298.282 296.918C293.325 296.918 289.211 300.961 289.211 308.273C289.211 315.656 293.325 319.594 298.282 319.594C302.676 319.594 305.7 316.5 306.368 313.02H308.231C307.493 317.309 303.907 321.352 298.282 321.352C291.883 321.352 287.418 316.184 287.418 308.273C287.418 300.363 291.883 295.195 298.282 295.195C303.907 295.195 307.493 299.168 308.231 303.527H306.368ZM327.11 301.945C326.864 298.887 324.403 296.848 320.852 296.848C317.196 296.848 314.594 298.992 314.594 301.91C314.594 304.547 316.879 305.988 319.762 306.832L322.504 307.641C326.161 308.695 329.254 310.488 329.254 314.32C329.254 318.398 325.95 321.422 320.676 321.422C315.649 321.422 312.45 318.715 312.168 314.742H314.032C314.278 317.871 316.985 319.734 320.676 319.734C324.649 319.734 327.461 317.555 327.461 314.32C327.461 311.684 325.458 310.348 321.977 309.293L318.989 308.414C315.016 307.184 312.801 305.145 312.801 301.98C312.801 297.973 316.282 295.16 320.887 295.16C325.493 295.16 328.727 298.008 328.903 301.945H327.11ZM367.258 292.84V323.637H365.571V307.219H360.333V321.984H358.715V293.684H360.333V305.742H365.571V292.84H367.258ZM354.286 296.953C354.286 304.301 351.403 311.93 342.403 316.816L341.418 315.551C349.223 311.385 352.299 304.916 352.633 298.43H342.333V296.953H354.286ZM375.836 294.527V307.711H376.364C381.708 307.711 385.54 307.465 390.004 306.551L390.215 307.992C385.645 308.941 381.813 309.188 376.364 309.188H374.114V294.527H375.836ZM397.458 292.84V311.051H395.805V303.668H386.102V302.227H395.805V298.184H386.102V296.777H395.805V292.84H397.458ZM397.458 312.457V323.145H377.981V312.457H397.458ZM379.598 313.898V321.703H395.84V313.898H379.598ZM430.258 296.496V297.938H411.872V296.496H420.239V292.699H421.891V296.496H430.258ZM421.047 299.941C425.407 299.977 428.29 302.051 428.325 305.426C428.29 308.766 425.407 310.875 421.047 310.875C416.618 310.875 413.735 308.766 413.735 305.426C413.735 302.051 416.618 299.977 421.047 299.941ZM421.047 301.348C417.602 301.348 415.317 303.035 415.317 305.426C415.317 307.816 417.602 309.469 421.047 309.469C424.422 309.469 426.708 307.816 426.743 305.426C426.708 303.035 424.422 301.348 421.047 301.348ZM435.567 292.84V301.734H440.489V303.211H435.567V312.035H433.915V292.84H435.567ZM435.567 313.969V323.637H433.915V315.41H415.809V313.969H435.567ZM448.258 311.297V315.551H465.45V311.297H467.137V323.145H446.571V311.297H448.258ZM448.258 321.703H465.45V316.957H448.258V321.703ZM470.864 307.254V308.73H442.844V307.254H470.864ZM457.715 294.914C457.715 299.203 464.676 302.508 469.141 303.176L468.473 304.547C464.237 303.826 458.7 301.277 456.907 297.48C455.079 301.33 449.506 303.826 445.27 304.547L444.602 303.176C449.137 302.473 455.993 299.309 456.028 294.914V293.191H457.715V294.914ZM500.008 304.406C499.586 301.594 497.407 299.871 494.454 299.871C490.481 299.871 487.879 302.93 487.879 308.273C487.879 313.758 490.516 316.676 494.418 316.676C497.336 316.676 499.481 315.059 500.008 312.316L505.352 312.352C504.754 317.062 500.817 321.352 494.348 321.352C487.528 321.352 482.5 316.57 482.5 308.273C482.5 299.977 487.633 295.195 494.348 295.195C500.219 295.195 504.649 298.57 505.352 304.406H500.008ZM522.86 302.824C522.649 300.82 521.032 299.625 518.465 299.625C515.793 299.625 514.317 300.855 514.282 302.543C514.247 304.371 516.18 305.215 518.36 305.707L520.645 306.27C525.004 307.254 528.274 309.469 528.274 313.723C528.274 318.398 524.618 321.352 518.43 321.352C512.278 321.352 508.34 318.504 508.2 313.055H513.333C513.508 315.621 515.547 316.922 518.36 316.922C521.137 316.922 522.93 315.621 522.93 313.723C522.93 312 521.348 311.191 518.571 310.488L515.793 309.82C511.504 308.766 508.868 306.621 508.868 302.895C508.868 298.254 512.946 295.195 518.5 295.195C524.125 295.195 527.852 298.324 527.922 302.824H522.86ZM568 308.027V311.613H538.821V308.027H551.161V305.496H541.106V293.016H545.325V295.863H548.313V293.016H552.461V304.512H554.325V293.016H558.579V295.863H561.461V293.016H565.715V305.496H555.661V308.027H568ZM564.555 313.793V324.234H560.02V317.379H541.739V313.793H564.555ZM545.325 301.945H548.313V299.309H545.325V301.945ZM558.579 301.945H561.461V299.309H558.579V301.945ZM599.114 308.027V311.613H569.934V308.027H582.274V305.496H572.219V293.016H576.438V295.863H579.426V293.016H583.575V304.512H585.438V293.016H589.692V295.863H592.575V293.016H596.829V305.496H586.774V308.027H599.114ZM595.668 313.793V324.234H591.133V317.379H572.852V313.793H595.668ZM576.438 301.945H579.426V299.309H576.438V301.945ZM589.692 301.945H592.575V299.309H589.692V301.945Z" fill="white"/>
<path d="M102.37 347.404V348.951H98.9951V359.92H97.167V339.084H98.9951V347.404H102.37ZM85.5654 341.146V353.076C88.6123 353.064 91.7178 352.83 95.1514 352.115L95.3857 353.686C91.7998 354.412 88.5654 354.623 85.4014 354.623H83.7373V341.146H85.5654ZM114.136 340.982V350.568H104.503V340.982H114.136ZM106.308 342.482V349.092H112.354V342.482H106.308ZM119.901 339.084V345.436H123.042V346.982H119.901V354.365H118.073V339.084H119.901ZM120.862 357.928V359.475H106.87V352.912H108.675V357.928H120.862ZM133.847 339.459C138.487 339.459 141.206 340.725 141.206 343.045C141.206 345.412 138.487 346.678 133.847 346.701C129.206 346.678 126.464 345.412 126.464 343.045C126.464 340.725 129.206 339.459 133.847 339.459ZM133.847 340.842C130.378 340.842 128.362 341.686 128.386 343.045C128.362 344.498 130.378 345.295 133.847 345.295C137.292 345.295 139.331 344.498 139.331 343.045C139.331 341.686 137.292 340.842 133.847 340.842ZM143.339 348.107V349.607H124.354V348.107H143.339ZM140.901 351.412V356.076H128.526V358.232H141.534V359.686H126.698V354.717H139.097V352.818H126.651V351.412H140.901ZM157.987 340.115C161.104 340.092 163.331 341.803 163.331 344.357C163.331 346.889 161.104 348.646 157.987 348.623C154.87 348.646 152.644 346.889 152.644 344.357C152.644 341.803 154.87 340.092 157.987 340.115ZM157.987 341.615C155.901 341.592 154.425 342.74 154.448 344.357C154.425 345.998 155.901 347.123 157.987 347.1C160.097 347.123 161.573 345.998 161.573 344.357C161.573 342.74 160.097 341.592 157.987 341.615ZM168.3 339.107V359.943H166.495V339.107H168.3ZM151.073 350.404C154.987 350.404 160.331 350.334 164.972 349.654L165.089 351.037C163.097 351.4 161.022 351.623 159.019 351.74V359.287H157.19V351.857C155.069 351.951 153.065 351.963 151.331 351.975L151.073 350.404ZM188.151 339.107V345.975H191.292V347.521H188.151V354.717H186.323V339.107H188.151ZM184.331 341.662V343.162H171.909V341.662H177.206V339.107H179.034V341.662H184.331ZM178.12 344.311C181.097 344.311 183.112 345.834 183.136 348.201C183.112 350.545 181.097 352.045 178.12 352.045C175.12 352.045 173.081 350.545 173.104 348.201C173.081 345.834 175.12 344.311 178.12 344.311ZM178.12 345.764C176.151 345.764 174.839 346.725 174.862 348.201C174.839 349.678 176.151 350.615 178.12 350.592C180.065 350.615 181.378 349.678 181.401 348.201C181.378 346.725 180.065 345.764 178.12 345.764ZM189.112 357.928V359.475H175.12V353.475H176.925V357.928H189.112ZM211.237 346.396C210.745 344.053 208.729 342.787 206.503 342.787C203.433 342.787 201.042 345.154 201.042 349.537C201.042 353.92 203.433 356.287 206.503 356.287C208.729 356.287 210.722 355.021 211.237 352.701H213.347C212.737 356.17 209.948 358.256 206.503 358.256C202.144 358.256 199.003 354.904 199.003 349.537C199.003 344.17 202.144 340.818 206.503 340.818C209.925 340.818 212.714 342.881 213.347 346.396H211.237ZM225.558 345.318C225.37 343.654 223.847 342.693 221.808 342.693C219.558 342.693 218.081 343.865 218.081 345.482C218.081 347.264 220.073 347.92 221.362 348.248L223.05 348.717C224.878 349.186 227.854 350.24 227.854 353.404C227.854 356.17 225.628 358.326 221.69 358.326C218.034 358.326 215.761 356.428 215.573 353.615H217.729C217.917 355.514 219.675 356.404 221.69 356.404C224.034 356.404 225.792 355.209 225.792 353.357C225.792 351.717 224.222 351.084 222.44 350.568L220.354 350.006C217.683 349.232 216.042 347.873 216.042 345.576C216.042 342.717 218.597 340.818 221.878 340.818C225.159 340.818 227.526 342.74 227.62 345.318H225.558ZM253.472 338.943V354.482H250.87V349.232H245.831C244.812 350.369 243.312 351.061 241.612 351.061C238.425 351.061 236.011 348.764 236.011 345.646C236.011 342.482 238.425 340.209 241.612 340.209C243.3 340.209 244.788 340.889 245.808 342.014H250.87V338.943H253.472ZM254.011 357.576V359.686H239.573V352.889H242.175V357.576H254.011ZM241.612 342.529C239.784 342.529 238.495 343.748 238.495 345.646C238.495 347.521 239.784 348.74 241.612 348.74C243.347 348.74 244.659 347.521 244.683 345.646C244.659 343.748 243.347 342.529 241.612 342.529ZM246.956 344.123C247.085 344.604 247.167 345.107 247.167 345.646C247.167 346.162 247.097 346.654 246.979 347.123H250.87V344.123H246.956ZM274.214 338.92V349.654H271.612V347.803H266.503V345.811H271.612V343.725H266.784C265.448 346.959 262.354 349.068 257.667 350.123L256.753 347.99C261.733 346.959 264.218 344.768 264.581 341.943H257.925V339.834H267.487C267.487 340.502 267.429 341.135 267.347 341.732H271.612V338.92H274.214ZM274.214 350.475V356.053H262.894V357.811H274.776V359.896H260.292V354.107H271.612V352.537H260.269V350.475H274.214ZM294.511 340.865V342.904C294.487 345.529 294.487 348.482 293.667 352.912L291.042 352.631C291.862 348.506 291.862 345.494 291.886 342.951H279.229V340.865H294.511ZM296.526 355.232V357.365H277.214V355.232H284.339V347.873H286.917V355.232H296.526ZM315.604 338.92V360.131H313.026V338.92H315.604ZM309.089 340.771V348.717H301.8V352.982C305.14 352.959 308.022 352.795 311.315 352.232L311.55 354.365C307.94 354.998 304.776 355.115 300.979 355.115H299.128V346.654H306.44V342.881H299.104V340.771H309.089ZM335.315 345.318V347.779H343.706V349.865H324.394V347.779H332.737V345.318H335.315ZM335.339 339.67C335.339 342.084 338.128 344.1 342.651 344.545L341.737 346.537C338.187 346.092 335.374 344.756 334.026 342.693C332.644 344.756 329.843 346.092 326.292 346.537L325.378 344.545C329.901 344.1 332.69 342.084 332.69 339.67V339.107H335.339V339.67ZM341.292 351.154V356.404H329.245V357.928H341.878V359.92H326.69V354.553H338.737V353.146H326.667V351.154H341.292ZM362.222 339.646V345.67H350.058V347.779H362.69V349.865H347.433V343.701H359.55V341.756H347.386V339.646H362.222ZM364.472 351.67V353.756H356.058V360.131H353.456V353.756H345.112V351.67H364.472ZM373.589 342.67C373.589 345.646 375.253 348.576 378.511 349.795L377.058 351.811C374.796 350.92 373.179 349.15 372.3 346.959C371.386 349.303 369.675 351.166 367.237 352.115L365.831 350.053C369.206 348.834 370.94 345.834 370.964 342.67V340.139H373.589V342.67ZM383.62 338.943V354.67H381.019V348.107H377.151V346.021H381.019V343.936H377.151V341.826H381.019V338.943H383.62ZM384.089 357.576V359.686H369.651V353.123H372.3V357.576H384.089ZM396.253 339.459C400.894 339.459 403.612 340.725 403.612 343.045C403.612 345.412 400.894 346.678 396.253 346.701C391.612 346.678 388.87 345.412 388.87 343.045C388.87 340.725 391.612 339.459 396.253 339.459ZM396.253 340.842C392.784 340.842 390.769 341.686 390.792 343.045C390.769 344.498 392.784 345.295 396.253 345.295C399.698 345.295 401.737 344.498 401.737 343.045C401.737 341.686 399.698 340.842 396.253 340.842ZM405.745 348.107V349.607H386.761V348.107H405.745ZM403.308 351.412V356.076H390.933V358.232H403.94V359.686H389.104V354.717H401.503V352.818H389.058V351.412H403.308ZM429.792 339.107V345.412H432.909V346.959H429.792V353.076H427.94V339.107H429.792ZM413.433 350.943C415.097 350.943 417.042 350.943 419.081 350.873V349.35C416.655 349.139 415.097 348.002 415.097 346.279C415.097 344.381 417.042 343.209 419.972 343.209C422.925 343.209 424.847 344.381 424.87 346.279C424.847 347.99 423.323 349.127 420.909 349.35V350.803C422.854 350.709 424.823 350.557 426.651 350.287L426.815 351.623C422.292 352.42 417.3 352.443 413.644 352.443L413.433 350.943ZM429.792 354.107V359.92H427.94V355.584H415.987V354.107H429.792ZM426.019 341.006V342.412H413.948V341.006H419.081V338.92H420.909V341.006H426.019ZM419.972 344.521C418.05 344.498 416.854 345.178 416.854 346.279C416.854 347.357 418.05 348.107 419.972 348.084C421.894 348.107 423.112 347.357 423.112 346.279C423.112 345.178 421.894 344.498 419.972 344.521ZM451.472 339.107V354.342H449.644V339.107H451.472ZM452.128 357.928V359.475H438.019V352.795H439.847V357.928H452.128ZM440.222 340.561C443.339 340.561 445.683 342.67 445.683 345.67C445.683 348.717 443.339 350.803 440.222 350.803C437.104 350.803 434.761 348.717 434.761 345.67C434.761 342.67 437.104 340.561 440.222 340.561ZM440.222 342.178C438.112 342.178 436.542 343.631 436.565 345.67C436.542 347.756 438.112 349.186 440.222 349.186C442.284 349.186 443.878 347.756 443.878 345.67C443.878 343.631 442.284 342.178 440.222 342.178ZM471.136 339.084V347.686H474.628V349.209H471.136V359.92H469.308V339.084H471.136ZM467.292 342.436V343.959H454.894V342.436H460.261V339.342H462.089V342.436H467.292ZM461.198 345.693C464.151 345.693 466.284 347.662 466.308 350.475C466.284 353.287 464.151 355.256 461.198 355.256C458.222 355.256 456.065 353.287 456.089 350.475C456.065 347.662 458.222 345.693 461.198 345.693ZM461.198 347.24C459.253 347.24 457.823 348.6 457.847 350.475C457.823 352.373 459.253 353.709 461.198 353.686C463.12 353.709 464.526 352.373 464.55 350.475C464.526 348.6 463.12 347.24 461.198 347.24ZM481.94 345.014C481.94 348.318 483.558 351.904 486.323 353.545L485.269 354.975C483.265 353.756 481.823 351.529 481.097 348.998C480.323 351.764 478.776 354.143 476.69 355.42L475.519 354.037C478.401 352.35 480.159 348.646 480.159 345.084V341.053H481.94V345.014ZM493.612 339.084V359.92H491.831V339.084H493.612ZM489.3 339.529V358.865H487.565V348.131H484.026V346.561H487.565V339.529H489.3ZM515.573 355.701V357.248H496.495V355.701H501.229V350.076C499.448 349.15 498.37 347.65 498.37 345.764C498.37 342.529 501.534 340.42 505.987 340.396C510.44 340.42 513.604 342.529 513.604 345.764C513.604 347.615 512.562 349.104 510.839 350.029V355.701H515.573ZM505.987 341.92C502.565 341.896 500.151 343.443 500.151 345.764C500.151 348.084 502.565 349.654 505.987 349.654C509.386 349.654 511.823 348.084 511.823 345.764C511.823 343.443 509.386 341.896 505.987 341.92ZM503.034 355.701H508.987V350.732C508.085 350.979 507.077 351.107 505.987 351.107C504.921 351.107 503.925 350.99 503.034 350.756V355.701ZM520.612 341.053L520.448 353.24H518.479L518.315 341.053H520.612ZM519.464 358.162C518.644 358.162 517.94 357.482 517.964 356.639C517.94 355.818 518.644 355.139 519.464 355.139C520.284 355.139 520.964 355.818 520.964 356.639C520.964 357.482 520.284 358.162 519.464 358.162Z" fill="#002C9A"/>
<path d="M1147 275.499C1160.83 274.166 1195.7 272.299 1224.5 275.499" stroke="#90A7F8"/>
<path d="M1333.5 295.5C1350.83 301.167 1391 314.9 1413 324.5" stroke="#90A7F8"/>
<defs>
<linearGradient id="paint0_linear_539_412" x1="1441" y1="299.012" x2="0.989453" y2="279.904" gradientUnits="userSpaceOnUse">
<stop offset="0.548077" stop-color="#4278FF"/>
<stop offset="1" stop-color="#3563E9"/>
</linearGradient>
</defs>
</svg>
